<svg xmlns="http://www.w3.org/2000/svg" xml:space="preserve" width="1058" height="200" style="shape-rendering:geometricPrecision;text-rendering:geometricPrecision;image-rendering:optimizeQuality;fill-rule:evenodd;clip-rule:evenodd" viewBox="0 0 432.13 81.49"><defs><clipPath id="id0"><path d="M82.74 30.3c-1.52-2.23-2.45-5.56-3.91-7.29l-6.06-5.77c-3.42-1.56-13.74-1.79-18.86-2.31-11.22-1.14-25.51-3.43-36.18-6.01C12.31 7.61 4.82 4.78 0 4.63 1.84 17.72 18.49 22.08 33.08 24.9c9.26 1.79 39.34 5.31 49.66 5.4m100.23 30.44c-20.68-1.95-13.11-26.76-22.99-33.97-6.97-5.09-36.66-6.36-50.02-8.06l-33.17-5.54c2.99 14.63 28.74 11.82 60.44 16.98 29.78 4.85 14.96 37.22 48.51 35.38l-1.32-2.29zM5.69 22.18c-.46 19.9 66.16 20.97 86.98 20.14-7.42-11.86.48-7.49-42.81-11.77-42.58-4.22-35.16-6.82-44.17-8.37M66.8 45.07c-28.29-.59-27.06-2.25-44.19-3.37 7.88 18.24 60.41 14.6 81.88 12.3-9.29-10.41-1.03-8.16-37.69-8.93m81.81-5.76c-4.32-9.01-28.07-8.67-47.23-11.21-5.78-.77-10.56-2.2-15.66-2.96 1.4 15.75 41.99 14.14 62.89 14.17M55.45 59.16c10.19 12.45 45.27 7.06 60.83 3.72-.4-.81-2.44-2.67-3.61-3.92-1.55-1.68-2.16-2.16-5.78-2.13-4.96.04-12.38.93-17.69 1.23-11.42.65-22.72.54-33.75 1.1m53.56-18.41c-5.95-.49-8.65-1.38-13.53-2.36 5.05 15.09 42.18 8.85 57.12 7.44-2.24-5.76-3.19-4.49-12.12-4.45-9.69.05-21.98.16-31.47-.63m44.65 7.16c-25.03 1.55-18.73 3.77-47.41 2.1 2.88 5.92 12.23 7.31 22.21 6.29 7.11-1.23 20.8-2.32 26.55-5.06zm-36.35 10.9c2.63 5.06 12.04 5.18 20.77 3.65 5.29-.92 16.83-3.41 20.28-5.3l-1.84-3.62c-14.3 1.95-23.28 4.17-39.21 5.27M92.55 70.2c.63 3.5 10.42 4.16 16.83 3.74 8.19-.53 13.22-2.25 19.97-3.92-4.18-5.85-7.43-5.56-16.99-3.69-6.71 1.32-12.94 2.59-19.81 3.87m36.9-4.73c4.66 7.21 29.14-.11 33.86-3.65l-2.62-2.93c-11.21 1.83-17.42 5.32-31.24 6.58m-15.28 11.92c10.29 3.47 20.41-.67 27.92-3.94-3.99-3.18-8.9-2.81-14.57-.94-3.79 1.24-11.4 3.4-13.35 4.88m18.66 3.74c5.09.63 8.58.53 13.3-1.07 3.41-1.15 7.59-2.91 8.78-5.23-11.02-1.41-5.82-2.58-17.9 3.16-4.5 2.13-3.52 1.55-4.18 3.14m9.7-10.23c12.75 3.79 26.46-5.25 26.46-5.29.02-.19.25-.22.41-.37l-2.16-1.73c-5.66 1.64-19.72 6.28-24.71 7.39m13.64 1.99c4.52 2.49 17.99.65 19.86-5.5-7.18-1.45-6.42 1.12-19.86 5.5"/></clipPath><clipPath id="id1"><path d="M349.39 30.3c1.52-2.23 2.45-5.56 3.91-7.29l6.06-5.77c3.43-1.56 13.74-1.79 18.86-2.31 11.23-1.14 25.51-3.43 36.18-6.01 5.42-1.31 12.91-4.14 17.73-4.29-1.84 13.09-18.49 17.45-33.08 20.27-9.26 1.79-39.34 5.31-49.66 5.4m-99.35 30.34c19.59-2.56 12.38-26.76 22.11-33.87 6.97-5.09 36.66-6.36 50.02-8.06l33.17-5.54c-2.98 14.63-28.74 11.82-60.44 16.98-29.54 4.81-15.2 36.69-47.71 35.41zm176.4-38.46c.46 19.9-66.16 20.97-86.98 20.14 7.42-11.86-.48-7.49 42.81-11.77 42.58-4.22 35.16-6.82 44.17-8.37m-61.11 22.89c28.29-.59 27.07-2.25 44.19-3.37-7.88 18.24-60.41 14.6-81.88 12.3 9.3-10.41 1.04-8.16 37.69-8.93m-81.81-5.76c4.32-9.01 28.08-8.67 47.23-11.21 5.79-.77 10.57-2.2 15.66-2.96-1.4 15.75-41.99 14.14-62.89 14.17m93.16 19.85c-10.19 12.45-45.26 7.06-60.83 3.72.4-.81 2.44-2.67 3.61-3.92 1.56-1.68 2.16-2.16 5.78-2.13 4.97.04 12.38.93 17.69 1.23 11.42.65 22.72.54 33.75 1.1m-53.55-18.41c5.94-.49 8.64-1.38 13.52-2.36-5.05 15.09-42.18 8.85-57.12 7.44 2.24-5.76 3.19-4.49 12.13-4.45 9.68.05 21.97.16 31.47-.63m-44.66 7.16c25.03 1.55 18.73 3.77 47.41 2.1-2.88 5.92-12.23 7.31-22.21 6.29-7.11-1.23-20.79-2.32-26.55-5.06zm36.35 10.9c-2.63 5.06-12.04 5.18-20.77 3.65-5.29-.92-16.83-3.41-20.28-5.3l1.84-3.62c14.3 1.95 23.28 4.17 39.21 5.27m24.77 11.39c-.64 3.5-10.43 4.16-16.84 3.74-8.19-.53-13.21-2.25-19.97-3.92 4.18-5.85 7.43-5.56 16.99-3.69 6.71 1.32 12.95 2.59 19.82 3.87m-36.91-4.73c-4.66 7.21-29.14-.11-33.86-3.65l2.62-2.93c11.21 1.83 17.42 5.32 31.24 6.58m15.28 11.92c-10.29 3.47-20.4-.67-27.92-3.94 3.99-3.18 8.9-2.81 14.58-.94 3.78 1.24 11.4 3.4 13.34 4.88m-18.66 3.74c-5.09.63-8.58.53-13.3-1.07-3.41-1.15-7.59-2.91-8.77-5.23 11.01-1.41 5.81-2.58 17.89 3.16 4.5 2.13 3.53 1.55 4.18 3.14m-9.7-10.23c-12.75 3.79-26.45-5.25-26.46-5.29-.02-.19-.25-.22-.41-.37l2.16-1.73c5.66 1.64 19.72 6.28 24.71 7.39m-13.64 1.99c-4.52 2.49-17.99.65-19.86-5.5 7.18-1.45 6.42 1.12 19.86 5.5"/></clipPath><clipPath id="id2"><path d="m195.47 72.68.4-22.11h12.43l6.3 10.88zm41.19 0-.4-22.11h-12.43l-6.06 10.88zm-20.48 3.09h22.27v-.01l21.82-37.69-1.12-1.98L238.16.01V0h-44.19v.01l-20.99 36.08-1.12 1.98 21.82 37.69v.01h22.5m0-74.21h19.73L217.4 12.43l-1.33.79-1.33-.79-18.52-10.87h19.96m-.11 13.83 5.67 9.81h-11.35zm.11 11.36h6.46l6.58 11.4-6.28 10.86H209.2l-6.29-10.86 6.58-11.4h6.69m0 23.82h5.86l-5.05 9.08-.82 1.4-.78-1.34-5.29-9.14h6.08m0 11.72 1.1.66 1.26.75 17.66 10.51h-40.27l17.89-10.51 1.4-.83zm13.94-22.59 5.39 9.31h-10.78zm7.12 9.23-6.22-10.78 6.39-11.05 19.14 10.87zm-7.12-12.33-5.69-9.85h11.39zm-6.59-11.4-6.29-10.88 19.13-11.23-.4 22.11zm34.18 11.67-20.19-11.49.41-22.68zm-19.49 36.2L258 38.9l-20.18 11.49zM202.01 39.7l-5.38 9.31h10.77zm-7.12 9.23 6.23-10.78-6.4-11.05-19.14 10.87zm7.12-12.33 5.69-9.85h-11.39zm6.59-11.4 6.29-10.88-19.13-11.23.4 22.11zm-34.18 11.67 20.19-11.49-.41-22.68zm19.49 36.2L174.13 38.9l20.19 11.49z"/></clipPath><radialGradient id="rayGradient" cx="216.07" cy="37.84" r="43" gradientUnits="userSpaceOnUse"><stop offset="0%" stop-color="#fff"/><stop offset="8%" stop-color="#f5f0f0"/><stop offset="18%" stop-color="#e8dfd0"/><stop offset="35%" stop-color="#f0d99a"/><stop offset="70%" stop-color="#d4b87a"/><stop offset="100%" stop-color="#b9a27a"/></radialGradient><style>.fil281{fill:#f8efcb}.fil280{fill:#f8efca}.fil278,.fil279{fill:#f8efc9}.fil277{fill:#f8efc8}.fil127{fill:#f8eec7}.fil126{fill:#f8eec6}.fil124,.fil125{fill:#f8eec5}.fil128{fill:#f8edc6}.fil123{fill:#f8edc3}.fil274,.fil275{fill:#f7eec5}.fil273{fill:#f7eec4}.fil129{fill:#f7edc6}.fil271{fill:#f7edc3}.fil122,.fil270{fill:#f7edc2}.fil130{fill:#f6ecc5}.fil121{fill:#f6ecc1}.fil131{fill:#f5ecc5}.fil132{fill:#f5ecc4}.fil268{fill:#f5ebc1}.fil267{fill:#f5ebc0}.fil120{fill:#f5ebbf}.fil133{fill:#f5ebc4}.fil266{fill:#f5eabe}.fil119{fill:#f5eabd}.fil134{fill:#f4eac2}.fil263{fill:#f4e9bc}.fil118{fill:#f4e9bb}.fil135,.fil136{fill:#f3e8c1}.fil117{fill:#f3e7b9}.fil116{fill:#f2e6b7}.fil137{fill:#f2e7c0}.fil138{fill:#f1e7bf}.fil255{fill:#f2e6b7}.fil254{fill:#f1e5b6}.fil139,.fil140{fill:#f0e5be}.fil115{fill:#f0e4b4}.fil141{fill:#efe4bd}.fil114{fill:#efe2b1}.fil113{fill:#efe2b0}.fil112{fill:#efe1b0}.fil142{fill:#eee3bc}.fil143{fill:#eee2bb}.fil111{fill:#eee1b0}.fil110{fill:#eee1af}.fil109{fill:#eee0af}.fil108{fill:#eee0ae}.fil144{fill:#ede1ba}.fil107{fill:#eddfae}.fil106{fill:#eddfad}.fil145{fill:#ece0b8}.fil105{fill:#ecdead}.fil104{fill:#ecdeac}.fil103{fill:#ebddab}.fil146{fill:#ebdfb7}.fil147{fill:#ebdeb6}.fil102{fill:#ebddab}.fil101{fill:#eadcaa}.fil148{fill:#eaddb5}.fil100{fill:#e9dba9}.fil99{fill:#e9daa8}.fil149{fill:#e9dcb4}.fil98{fill:#e8daa8}.fil97{fill:#e8d9a7}.fil150{fill:#e8dbb3}.fil96{fill:#e7d9a7}.fil95{fill:#e7d8a6}.fil151{fill:#e7dab2}.fil152{fill:#e5d8b0}.fil94{fill:#e6d7a6}.fil153{fill:#e4d6af}.fil93{fill:#e5d6a5}.fil92{fill:#e4d5a4}.fil91{fill:#e4d4a3}.fil154{fill:#e3d5ad}.fil90{fill:#e3d4a3}.fil89{fill:#e3d3a2}.fil155{fill:#e2d4ad}.fil88{fill:#e2d2a2}.fil87{fill:#e2d2a1}.fil156{fill:#e1d3ac}.fil86{fill:#e1d1a0}.fil157{fill:#e0d2ab}.fil85{fill:#e0d09f}.fil84{fill:#e0cf9f}.fil158{fill:#dfd0a9}.fil83{fill:#dfcf9e}.fil82{fill:#dfce9d}.fil159{fill:#decfa8}.fil80,.fil81{fill:#decd9d}.fil160{fill:#ddcea7}.fil79{fill:#ddcc9c}.fil78{fill:#ddcb9b}.fil161{fill:#dccda6}.fil77{fill:#dccb9b}.fil76{fill:#dcca9a}.fil162{fill:#dbcba4}.fil75{fill:#dbc99a}.fil163{fill:#dacaa3}.fil74{fill:#dac899}.fil73{fill:#dac798}.fil164{fill:#d9c9a2}.fil165{fill:#d9c8a1}.fil72{fill:#d9c798}.fil71{fill:#d9c797}.fil166{fill:#d8c79f}.fil70{fill:#d7c596}.fil69{fill:#d7c595}.fil167{fill:#d7c69f}.fil68{fill:#d6c495}.fil232{fill:#d6c394}.fil168{fill:#d6c59d}.fil67{fill:#d5c394}.fil66{fill:#d5c294}.fil169{fill:#d5c49c}.fil65{fill:#d4c293}.fil64{fill:#d4c193}.fil170{fill:#d4c29b}.fil63{fill:#d3c092}.fil171{fill:#d3c19a}.fil62{fill:#d2bf91}.fil61{fill:#d2be90}.fil172{fill:#d2c099}.fil60{fill:#d1bd90}.fil173{fill:#d1bf98}.fil59{fill:#d0bd90}.fil58{fill:#d0bc8f}.fil174{fill:#d0be96}.fil57{fill:#cfbc8e}.fil56{fill:#cfbb8e}.fil175{fill:#cfbd95}.fil55{fill:#cebb8e}.fil54{fill:#ceba8d}.fil176{fill:#cebc94}.fil53{fill:#cdb98c}.fil177{fill:#cdbb94}.fil52{fill:#ccb98c}.fil51{fill:#ccb88b}.fil178{fill:#ccb992}.fil50{fill:#cab68a}.fil49{fill:#cab58a}.fil179{fill:#cbb891}.fil47,.fil48{fill:#c9b589}.fil180{fill:#cbb790}.fil181{fill:#cab68f}.fil46{fill:#c8b488}.fil182{fill:#c9b58e}.fil45{fill:#c7b387}.fil183{fill:#c9b58d}.fil44{fill:#c7b287}.fil184{fill:#c7b28c}.fil43{fill:#c6b186}.fil42{fill:#c6b086}.fil185{fill:#c6b18b}.fil41{fill:#c5b085}.fil40{fill:#c5b084}.fil186{fill:#c5b08a}.fil187{fill:#c5b089}.fil39{fill:#c4af84}.fil38{fill:#c4ae83}.fil188{fill:#c4af89}.fil37{fill:#c3ae84}.fil36{fill:#c3ad83}.fil189{fill:#c3ae88}.fil35{fill:#c2ac83}.fil34{fill:#c2ac82}.fil190{fill:#c2ad87}.fil191{fill:#c2ac86}.fil33{fill:#c1ab82}.fil32{fill:#c0ab81}.fil192{fill:#c1ab86}.fil31{fill:#bfaa81}.fil30{fill:#bfa980}.fil193{fill:#c0aa85}.fil194{fill:#c0aa84}.fil29{fill:#bfa980}.fil28{fill:#bea87f}.fil195{fill:#bfa984}.fil27{fill:#bea77e}.fil196{fill:#bfa983}.fil197{fill:#bea883}.fil25,.fil26{fill:#bda67e}.fil198{fill:#bea882}.fil199{fill:#bea781}.fil23,.fil24{fill:#bca57d}.fil200{fill:#bda681}.fil22{fill:#bba57d}.fil21{fill:#bba47c}.fil201{fill:#bca580}.fil20{fill:#baa47c}.fil202{fill:#bca57f}.fil19{fill:#baa37b}.fil203{fill:#bba57f}.fil204{fill:#bba47f}.fil18{fill:#baa27b}.fil205{fill:#baa37e}.fil16,.fil17{fill:#b9a27a}.fil15{fill:#b9a17a}.fil14{fill:#b8a179}.fil13{fill:#b8a079}.fil12{fill:#b7a079}.fil11{fill:#b69f78}.fil10{fill:#b69e77}.fil9{fill:#b59d77}.fil8{fill:#b59d76}.fil6,.fil7{fill:#b49c76}.fil4,.fil5{fill:#b39b75}.fil3{fill:#b29b75}.fil2{fill:#b29a74}</style></defs><g id="Layer_x0020_1"><g id="_2597798360144"><path d="m216.81 13.74.07 23.32h42.54v1.56h-42.54l.07 23.44-1.55-.01-.07-23.43h-42.11v-1.56h42.1l-.06-23.33z" style="fill:url(#rayGradient)"/><path d="m237.3 3.08-19.42 33.05 18.17-10.3.75 1.36-18.52 10.5 18.06 10.92-.75 1.37-17.67-10.68 19.64 33.4-1.35.79-20.14-34.27-20.72 35.26-1.34-.78 19.82-33.75-17.31 10.03-.76-1.37 18.72-10.83-19.21-10.7.75-1.36 18.02 10.04L194.6 2.68l1.35-.78 20.12 34.24L235.95 2.3z" style="fill:url(#rayGradient)"/><g style="clip-path:url(#id0)"><path d="m20.17 108.81-1.34-5.99 166.89-37.36 1.34 5.98z" class="fil2"/><path id="_1" d="m18.87 102.99-.11-.49 166.89-37.37.11.49z" class="fil2"/><path id="_2" d="m18.8 102.66-.11-.49L185.58 64.8l.11.49z" class="fil2"/><path id="_3" d="m18.72 102.34-.11-.49 166.9-37.37.11.49z" class="fil2"/><path id="_4" d="m18.65 102.01-.11-.49 166.89-37.37.11.49z" class="fil2"/><path id="_5" d="m18.58 101.69-.11-.49 166.89-37.37.11.49z" class="fil2"/><path id="_6" d="m18.51 101.36-.11-.49L185.29 63.5l.11.49z" class="fil2"/><path id="_7" d="m18.43 101.04-.11-.49 166.89-37.37.11.49z" class="fil2"/><path id="_8" d="m18.36 100.71-.11-.49 166.89-37.37.11.49z" class="fil3"/><path id="_9" d="m18.29 100.39-.11-.49 166.89-37.37.11.49z" class="fil4"/><path id="_10" d="m18.21 100.06-.11-.49L185 62.2l.11.49z" class="fil4"/><path id="_11" d="m18.14 99.74-.11-.49 166.89-37.37.11.49z" class="fil4"/><path id="_12" d="m18.07 99.41-.11-.49 166.89-37.37.11.49z" class="fil4"/><path id="_13" d="m18 99.09-.11-.49 166.89-37.37.11.49z" class="fil4"/><path id="_14" d="m17.92 98.76-.11-.49 166.9-37.37.1.49z" class="fil5"/><path id="_15" d="m17.85 98.44-.11-.49 166.89-37.37.11.49z" class="fil6"/><path id="_16" d="m17.78 98.11-.11-.49 166.89-37.37.11.49z" class="fil6"/><path id="_17" d="m17.7 97.79-.1-.49 166.89-37.37.11.49z" class="fil6"/><path id="_18" d="m17.63 97.46-.11-.49L184.41 59.6l.11.49z" class="fil7"/><path id="_19" d="m17.56 97.14-.11-.49 166.89-37.37.11.49z" class="fil7"/><path id="_20" d="m17.49 96.81-.11-.49 166.89-37.37.11.49z" class="fil8"/><path id="_21" d="M17.41 96.48 17.3 96l166.9-37.37.1.49z" class="fil9"/><path id="_22" d="m17.34 96.16-.11-.49L184.12 58.3l.11.49z" class="fil9"/><path id="_23" d="m17.27 95.83-.11-.48 166.89-37.37.11.49z" class="fil9"/><path id="_24" d="m17.2 95.51-.11-.49 166.89-37.37.11.49z" class="fil10"/><path id="_25" d="m17.12 95.18-.11-.48L183.9 57.33l.11.49z" class="fil10"/><path id="_26" d="m17.05 94.86-.11-.49L183.83 57l.11.49z" class="fil10"/><path id="_27" d="m16.98 94.53-.11-.48 166.89-37.37.11.49z" class="fil11"/><path id="_28" d="m16.9 94.21-.11-.49 166.9-37.37.11.49z" class="fil11"/><path id="_29" d="m16.83 93.88-.11-.48 166.89-37.37.11.48z" class="fil12"/><path id="_30" d="m16.76 93.56-.11-.49L183.54 55.7l.11.49z" class="fil13"/><path id="_31" d="m16.69 93.23-.11-.48 166.89-37.37.11.48z" class="fil13"/><path id="_32" d="m16.61 92.91-.11-.49 166.89-37.37.11.49z" class="fil14"/><path id="_33" d="m16.54 92.58-.11-.48 166.89-37.37.11.48z" class="fil15"/><path id="_34" d="m16.47 92.26-.11-.49L183.25 54.4l.11.49z" class="fil16"/><path id="_35" d="m16.39 91.93-.1-.48 166.89-37.37.11.48z" class="fil17"/><path id="_36" d="m16.32 91.61-.11-.49L183.1 53.75l.11.49z" class="fil18"/><path id="_37" d="m16.25 91.28-.11-.48 166.89-37.37.11.48z" class="fil18"/><path id="_38" d="m16.18 90.96-.11-.49L182.96 53.1l.11.49z" class="fil19"/><path id="_39" d="m16.1 90.63-.11-.48 166.9-37.37.1.48z" class="fil19"/><path id="_40" d="m16.03 90.31-.11-.49 166.89-37.37.11.49z" class="fil20"/><path id="_41" d="m15.96 89.98-.11-.48 166.89-37.37.11.48z" class="fil21"/><path id="_42" d="m15.88 89.66-.1-.49L182.67 51.8l.11.49z" class="fil22"/><path id="_43" d="m15.81 89.33-.11-.48 166.89-37.37.11.48z" class="fil23"/><path id="_44" d="m15.74 89.01-.11-.49 166.89-37.37.11.49z" class="fil24"/><path id="_45" d="m15.67 88.68-.11-.49 166.89-37.36.11.48z" class="fil25"/><path id="_46" d="m15.59 88.36-.11-.49 166.9-37.37.11.49z" class="fil26"/><path id="_47" d="m15.52 88.03-.11-.49L182.3 50.18l.11.48z" class="fil27"/><path id="_48" d="m15.45 87.71-.11-.49 166.89-37.37.11.49z" class="fil27"/><path id="_49" d="m15.38 87.38-.11-.49 166.89-37.36.11.48z" class="fil28"/><path id="_50" d="m15.3 87.06-.11-.49L182.08 49.2l.11.49z" class="fil29"/><path id="_51" d="m15.23 86.73-.11-.49 166.89-37.36.11.48z" class="fil30"/><path id="_52" d="m15.16 86.41-.11-.49 166.89-37.37.11.49z" class="fil31"/><path id="_53" d="m15.08 86.08-.11-.49 166.9-37.36.11.48z" class="fil32"/><path id="_54" d="m15.01 85.76-.11-.49L181.79 47.9l.11.49z" class="fil33"/><path id="_55" d="m14.94 85.43-.11-.49 166.89-37.37.11.49z" class="fil34"/><path id="_56" d="m14.87 85.11-.11-.49 166.89-37.37.11.49z" class="fil35"/><path id="_57" d="m14.79 84.78-.11-.49 166.9-37.37.1.49z" class="fil36"/><path id="_58" d="m14.72 84.46-.11-.49L181.5 46.6l.11.49z" class="fil37"/><path id="_59" d="m14.65 84.13-.11-.49 166.89-37.37.11.49z" class="fil38"/><path id="_60" d="m14.57 83.81-.1-.49 166.89-37.37.11.49z" class="fil39"/><path id="_61" d="m14.5 83.48-.11-.49 166.89-37.37.11.49z" class="fil40"/><path id="_62" d="m14.43 83.16-.11-.49L181.21 45.3l.11.49z" class="fil41"/><path id="_63" d="m14.36 82.83-.11-.49 166.89-37.37.11.49z" class="fil42"/><path id="_64" d="m14.28 82.51-.11-.49 166.9-37.37.1.49z" class="fil43"/><path id="_65" d="m14.21 82.18-.11-.49 166.89-37.37.11.49z" class="fil44"/><path id="_66" d="m14.14 81.86-.11-.49L180.92 44l.11.49z" class="fil44"/><path id="_67" d="m14.06 81.53-.1-.49 166.89-37.37.11.49z" class="fil45"/><path id="_68" d="m13.99 81.21-.11-.49 166.89-37.37.11.49z" class="fil46"/><path id="_69" d="m13.92 80.88-.11-.49L180.7 43.02l.11.49z" class="fil46"/><path id="_70" d="m13.85 80.56-.11-.49L180.63 42.7l.11.49z" class="fil47"/><path id="_71" d="m13.77 80.23-.11-.49 166.9-37.37.11.49z" class="fil48"/><path id="_72" d="m13.7 79.91-.11-.49 166.89-37.37.11.49z" class="fil49"/><path id="_73" d="m13.63 79.58-.11-.49 166.89-37.37.11.49z" class="fil50"/><path id="_74" d="m13.56 79.25-.11-.48L180.34 41.4l.11.49z" class="fil51"/><path id="_75" d="m13.48 78.93-.11-.49 166.89-37.37.11.49z" class="fil52"/><path id="_76" d="m13.41 78.6-.11-.48 166.89-37.37.11.49z" class="fil53"/><path id="_77" d="m13.34 78.28-.11-.49 166.89-37.37.11.49z" class="fil54"/><path id="_78" d="m13.26 77.95-.11-.48 166.9-37.37.11.49z" class="fil55"/><path id="_79" d="m13.19 77.63-.11-.49 166.89-37.37.11.49z" class="fil56"/><path id="_80" d="m13.12 77.3-.11-.48L179.9 39.45l.11.49z" class="fil57"/><path id="_81" d="m13.05 76.98-.11-.49 166.89-37.37.11.49z" class="fil58"/><path id="_82" d="m12.97 76.65-.11-.48 166.9-37.37.1.48z" class="fil59"/><path id="_83" d="m12.9 76.33-.11-.49 166.89-37.37.11.49z" class="fil60"/><path id="_84" d="m12.83 76-.11-.48 166.89-37.37.11.48z" class="fil61"/><path id="_85" d="m12.75 75.68-.1-.49 166.89-37.37.11.49z" class="fil62"/><path id="_86" d="m12.68 75.35-.11-.48L179.46 37.5l.11.48z" class="fil63"/><path id="_87" d="m12.61 75.03-.11-.49 166.89-37.37.11.49z" class="fil63"/><path id="_88" d="m12.54 74.7-.11-.48 166.89-37.37.11.48z" class="fil64"/><path id="_89" d="m12.46 74.38-.11-.49 166.9-37.37.1.49z" class="fil65"/><path id="_90" d="m12.39 74.05-.11-.48L179.17 36.2l.11.48z" class="fil66"/><path id="_91" d="m12.32 73.73-.11-.49L179.1 35.87l.11.49z" class="fil67"/><path id="_92" d="m12.25 73.4-.11-.48 166.89-37.37.11.48z" class="fil68"/><path id="_93" d="m12.17 73.08-.11-.49 166.89-37.37.11.49z" class="fil69"/><path id="_94" d="m12.1 72.75-.11-.48L178.88 34.9l.11.48z" class="fil70"/><path id="_95" d="m12.03 72.43-.11-.49 166.89-37.37.11.49z" class="fil71"/><path id="_96" d="m11.95 72.1-.11-.48 166.9-37.37.11.48z" class="fil72"/><path id="_97" d="m11.88 71.78-.11-.49 166.89-37.37.11.49z" class="fil73"/><path id="_98" d="m11.81 71.45-.11-.49L178.59 33.6l.11.48z" class="fil74"/><path id="_99" d="m11.74 71.13-.11-.49 166.89-37.37.11.49z" class="fil75"/><path id="_100" d="m11.66 70.8-.11-.49 166.89-37.36.11.48z" class="fil75"/><path id="_101" d="m11.59 70.48-.11-.49 166.89-37.37.11.49z" class="fil76"/><path id="_102" d="m11.52 70.15-.11-.49L178.3 32.3l.11.48z" class="fil77"/><path id="_103" d="m11.44 69.83-.1-.49 166.89-37.37.11.49z" class="fil78"/><path id="_104" d="m11.37 69.5-.11-.49 166.89-37.37.11.49z" class="fil79"/><path id="_105" d="m11.3 69.18-.11-.49 166.89-37.37.11.49z" class="fil80"/><path id="_106" d="m11.23 68.85-.11-.49 166.89-37.37.11.49z" class="fil81"/><path id="_107" d="m11.15 68.53-.11-.49 166.9-37.37.1.49z" class="fil82"/><path id="_108" d="m11.08 68.2-.11-.49 166.89-37.37.11.49z" class="fil83"/><path id="_109" d="m11.01 67.88-.11-.49 166.89-37.37.11.49z" class="fil84"/><path id="_110" d="m10.93 67.55-.1-.49 166.89-37.37.11.49z" class="fil85"/><path id="_111" d="m10.86 67.23-.11-.49 166.89-37.37.11.49z" class="fil86"/><path id="_112" d="m10.79 66.9-.11-.49 166.89-37.37.11.49z" class="fil86"/><path id="_113" d="m10.72 66.58-.11-.49L177.5 28.72l.11.49z" class="fil87"/><path id="_114" d="m10.64 66.25-.11-.49 166.9-37.37.11.49z" class="fil88"/><path id="_115" d="m10.57 65.93-.11-.49 166.89-37.37.11.49z" class="fil89"/><path id="_116" d="m10.5 65.6-.11-.49 166.89-37.37.11.49z" class="fil90"/><path id="_117" d="m10.43 65.28-.11-.49 166.89-37.37.11.49z" class="fil91"/><path id="_118" d="m10.35 64.95-.11-.49 166.89-37.37.11.49z" class="fil92"/><path id="_119" d="m10.28 64.63-.11-.49 166.89-37.37.11.49z" class="fil93"/><path id="_120" d="m10.21 64.3-.11-.49 166.89-37.37.11.49z" class="fil94"/><path id="_121" d="m10.13 63.98-.11-.49 166.9-37.37.11.49z" class="fil94"/><path id="_122" d="m10.06 63.65-.11-.49 166.89-37.37.11.49z" class="fil95"/><path id="_123" d="m9.99 63.32-.11-.48 166.89-37.37.11.49z" class="fil95"/><path id="_124" d="m9.92 63-.11-.49L176.7 25.14l.11.49z" class="fil96"/><path id="_125" d="m9.84 62.67-.11-.48 166.9-37.37.1.49z" class="fil97"/><path id="_126" d="m9.77 62.35-.11-.49 166.89-37.37.11.49z" class="fil98"/><path id="_127" d="m9.7 62.02-.11-.48 166.89-37.37.11.49z" class="fil99"/><path id="_128" d="m9.62 61.7-.1-.49 166.89-37.37.11.49z" class="fil100"/><path id="_129" d="m9.55 61.37-.11-.48 166.89-37.37.11.49z" class="fil100"/><path id="_130" d="m9.48 61.05-.11-.49 166.89-37.37.11.49z" class="fil101"/><path id="_131" d="m9.41 60.72-.11-.48 166.89-37.37.11.48z" class="fil101"/><path id="_132" d="m9.33 60.4-.11-.49 166.9-37.37.1.49z" class="fil102"/><path id="_133" d="m9.26 60.07-.11-.48 166.89-37.37.11.48z" class="fil103"/><path id="_134" d="m9.19 59.75-.11-.49 166.89-37.37.11.49z" class="fil104"/><path id="_135" d="m9.11 59.42-.1-.48L175.9 21.57l.11.48z" class="fil104"/><path id="_136" d="m9.04 59.1-.11-.49 166.89-37.37.11.49z" class="fil105"/><path id="_137" d="m8.97 58.77-.11-.48 166.89-37.37.11.48z" class="fil106"/><path id="_138" d="m8.9 58.45-.11-.49 166.89-37.37.11.49z" class="fil106"/><path id="_139" d="m8.82 58.12-.11-.48 166.9-37.37.11.48z" class="fil107"/><path id="_140" d="m8.75 57.8-.11-.49 166.89-37.37.11.49z" class="fil108"/><path id="_141" d="m8.68 57.47-.11-.48 166.89-37.37.11.48z" class="fil109"/><path id="_142" d="m8.61 57.15-.11-.49 166.89-37.37.11.49z" class="fil109"/><path id="_143" d="m8.53 56.82-.11-.48 166.89-37.37.11.48z" class="fil110"/><path id="_144" d="m8.46 56.5-.11-.49 166.89-37.37.11.49z" class="fil111"/><path id="_145" d="m8.39 56.17-.11-.48 166.89-37.37.11.48z" class="fil112"/><path id="_146" d="m8.31 55.85-.11-.49 166.9-37.37.11.49z" class="fil113"/><path id="_147" d="m8.24 55.52-.11-.49 166.89-37.36.11.48z" class="fil114"/><path id="_148" d="m8.17 55.2-.11-.49 166.89-37.37.11.49z" class="fil114"/><path id="_149" d="m8.1 54.87-.11-.49 166.89-37.36.11.48z" class="fil115"/><path id="_150" d="m8.02 54.55-.11-.49 166.9-37.37.1.49z" class="fil116"/><path id="_151" d="m7.95 54.22-.11-.49 166.89-37.36.11.48z" class="fil117"/><path id="_152" d="m7.88 53.9-.11-.49 166.89-37.37.11.49z" class="fil118"/><path id="_153" d="m7.8 53.57-.1-.49 166.89-37.36.11.48z" class="fil119"/><path id="_154" d="m7.73 53.25-.11-.49 166.89-37.37.11.49z" class="fil120"/><path id="_155" d="m7.66 52.92-.11-.49 166.89-37.36.11.48z" class="fil121"/><path id="_156" d="m7.59 52.6-.11-.49 166.89-37.37.11.49z" class="fil122"/><path id="_157" d="m7.51 52.27-.11-.49 166.9-37.36.1.48z" class="fil123"/><path id="_158" d="m7.44 51.95-.11-.49 166.89-37.37.11.49z" class="fil124"/><path id="_159" d="m7.37 51.62-.11-.49 166.89-37.37.11.49z" class="fil125"/><path id="_160" d="m7.3 51.3-.11-.49 166.89-37.37.11.49z" class="fil126"/><path id="_161" d="m7.22 50.97-.11-.49L174 13.11l.11.49z" class="fil126"/><path id="_162" d="m7.15 50.65-.11-.49 166.89-37.37.11.49z" class="fil127"/><path id="_163" d="m7.08 50.32-.11-.49 166.89-37.37.11.49z" class="fil127"/><path id="_164" d="m7 50-.11-.49 166.9-37.37.11.49z" class="fil127"/><path id="_165" d="m6.93 49.67-.11-.49 166.89-37.37.11.49z" class="fil127"/><path id="_166" d="m6.86 49.35-.11-.49 166.89-37.37.11.49z" class="fil127"/><path id="_167" d="m6.79 49.02-.11-.49 166.89-37.37.11.49z" class="fil127"/><path id="_168" d="m6.71 48.7-.11-.49 166.89-37.37.11.49z" class="fil128"/><path id="_169" d="m6.64 48.37-.11-.49 166.89-37.37.11.49z" class="fil129"/><path id="_170" d="m6.57 48.05-.11-.49 166.89-37.37.11.49z" class="fil129"/><path id="_171" d="m6.49 47.72-.1-.49L173.28 9.86l.11.49z" class="fil130"/><path id="_172" d="m6.42 47.4-.11-.49L173.2 9.54l.11.49z" class="fil131"/><path id="_173" d="m6.35 47.07-.11-.49L173.13 9.21l.11.49z" class="fil132"/><path id="_174" d="m6.28 46.75-.11-.49L173.06 8.89l.11.49z" class="fil133"/><path id="_175" d="m6.2 46.42-.11-.49 166.9-37.37.1.49z" class="fil134"/><path id="_176" d="m6.13 46.1-.11-.49L172.91 8.24l.11.49z" class="fil134"/><path id="_177" d="m6.06 45.77-.11-.49L172.84 7.91l.11.49z" class="fil135"/><path id="_178" d="m5.98 45.44-.1-.48L172.77 7.59l.11.49z" class="fil136"/><path id="_179" d="m5.91 45.12-.11-.49L172.69 7.26l.11.49z" class="fil137"/><path id="_180" d="m5.84 44.79-.11-.48L172.62 6.94l.11.49z" class="fil138"/><path id="_181" d="m5.77 44.47-.11-.49L172.55 6.61l.11.49z" class="fil139"/><path id="_182" d="m5.69 44.14-.11-.48 166.9-37.37.11.49z" class="fil140"/><path id="_183" d="m5.62 43.82-.11-.49L172.4 5.96l.11.49z" class="fil141"/><path id="_184" d="m5.55 43.49-.11-.48L172.33 5.64l.11.48z" class="fil142"/><path id="_185" d="m5.48 43.17-.11-.49L172.26 5.31l.11.49z" class="fil143"/><path id="_186" d="m5.4 42.84-.11-.48L172.18 4.99l.11.48z" class="fil144"/><path id="_187" d="m5.33 42.52-.11-.49L172.11 4.66l.11.49z" class="fil145"/><path id="_188" d="m5.26 42.19-.11-.48L172.04 4.34l.11.48z" class="fil146"/><path id="_189" d="m5.18 41.87-.11-.49 166.9-37.37.11.49z" class="fil147"/><path id="_190" d="M5.11 41.54 5 41.06 171.89 3.69l.11.48z" class="fil148"/><path id="_191" d="m5.04 41.22-.11-.49L171.82 3.36l.11.49z" class="fil149"/><path id="_192" d="m4.97 40.89-.11-.48L171.75 3.04l.11.48z" class="fil150"/><path id="_193" d="m4.89 40.57-.11-.49 166.9-37.37.1.49z" class="fil151"/><path id="_194" d="m4.82 40.24-.11-.48L171.6 2.39l.11.48z" class="fil152"/><path id="_195" d="m4.75 39.92-.11-.49L171.53 2.06l.11.49z" class="fil153"/><path id="_196" d="m4.67 39.59-.1-.48L171.46 1.74l.11.48z" class="fil154"/><path id="_197" d="m4.6 39.27-.11-.49L171.38 1.41l.11.49z" class="fil155"/><path id="_198" d="m4.53 38.94-.11-.48L171.31 1.09l.11.48z" class="fil156"/><path id="_199" d="m4.46 38.62-.11-.49L171.24.76l.11.49z" class="fil157"/><path id="_200" d="m4.38 38.29-.11-.49L171.17.44l.1.48z" class="fil158"/><path id="_201" d="m4.31 37.97-.11-.49L171.09.11l.11.49z" class="fil159"/><path id="_202" d="m4.24 37.64-.11-.49L171.02-.21l.11.48z" class="fil160"/><path id="_203" d="m4.16 37.32-.1-.49L170.95-.54l.11.49z" class="fil161"/><path id="_204" d="m4.09 36.99-.11-.49L170.87-.86l.11.48z" class="fil162"/><path id="_205" d="m4.02 36.67-.11-.49L170.8-1.19l.11.49z" class="fil163"/><path id="_206" d="m3.95 36.34-.11-.49L170.73-1.52l.11.49z" class="fil164"/><path id="_207" d="m3.87 36.02-.11-.49 166.9-37.37.11.49z" class="fil165"/><path id="_208" d="m3.8 35.69-.11-.49L170.58-2.17l.11.49z" class="fil166"/><path id="_209" d="m3.73 35.37-.11-.49L170.51-2.49l.11.49z" class="fil167"/><path id="_210" d="m3.66 35.04-.11-.49L170.44-2.82l.11.49z" class="fil168"/><path id="_211" d="m3.58 34.72-.11-.49L170.36-3.14l.11.49z" class="fil169"/><path id="_212" d="m3.51 34.39-.11-.49L170.29-3.47l.11.49z" class="fil170"/><path id="_213" d="m3.44 34.07-.11-.49L170.22-3.79l.11.49z" class="fil171"/><path id="_214" d="m3.36 33.74-.11-.49 166.9-37.37.11.49z" class="fil172"/><path id="_215" d="m3.29 33.42-.11-.49L170.07-4.44l.11.49z" class="fil173"/><path id="_216" d="m3.22 33.09-.11-.49L170-4.77l.11.49z" class="fil174"/><path id="_217" d="m3.15 32.77-.11-.49L169.93-5.09l.11.49z" class="fil175"/><path id="_218" d="m3.07 32.44-.11-.49 166.9-37.37.1.49z" class="fil176"/><path id="_219" d="m3 32.12-.11-.49L169.78-5.74l.11.49z" class="fil177"/><path id="_220" d="m2.93 31.79-.11-.49L169.71-6.07l.11.49z" class="fil178"/><path id="_221" d="m2.85 31.47-.1-.49L169.64-6.39l.11.49z" class="fil179"/><path id="_222" d="m2.78 31.14-.11-.49L169.56-6.72l.11.49z" class="fil180"/><path id="_223" d="m2.71 30.82-.11-.49L169.49-7.04l.11.49z" class="fil181"/><path id="_224" d="M2.64 30.49 2.53 30 169.42-7.37l.11.49z" class="fil182"/><path id="_225" d="m2.56 30.16-.11-.48 166.9-37.37.1.49z" class="fil183"/><path id="_226" d="m2.49 29.84-.11-.49L169.27-8.02l.11.49z" class="fil184"/><path id="_227" d="m2.42 29.51-.11-.48L169.2-8.34l.11.49z" class="fil185"/><path id="_228" d="m2.35 29.19-.11-.49L169.13-8.67l.11.49z" class="fil186"/><path id="_229" d="m2.27 28.86-.11-.48L169.05-8.99l.11.49z" class="fil187"/><path id="_230" d="m2.2 28.54-.11-.49L168.98-9.32l.11.49z" class="fil188"/><path id="_231" d="m2.13 28.21-.11-.48L168.91-9.64l.11.49z" class="fil189"/><path id="_232" d="m2.05 27.89-.11-.49 166.9-37.37.11.49z" class="fil190"/><path id="_233" d="m1.98 27.56-.11-.48 166.89-37.37.11.48z" class="fil191"/><path id="_234" d="m1.91 27.24-.11-.49 166.89-37.37.11.49z" class="fil192"/><path id="_235" d="m1.84 26.91-.11-.48 166.89-37.37.11.48z" class="fil193"/><path id="_236" d="m1.76 26.59-.11-.49 166.89-37.37.11.49z" class="fil194"/><path id="_237" d="m1.69 26.26-.11-.48 166.89-37.37.11.48z" class="fil195"/><path id="_238" d="m1.62 25.94-.11-.49L168.4-11.92l.11.49z" class="fil196"/><path id="_239" d="m1.54 25.61-.1-.48 166.89-37.37.11.48z" class="fil197"/><path id="_240" d="m1.47 25.29-.11-.49 166.89-37.37.11.49z" class="fil198"/><path id="_241" d="m1.4 24.96-.11-.48 166.89-37.37.11.48z" class="fil199"/><path id="_242" d="m1.33 24.64-.11-.49 166.89-37.37.11.49z" class="fil200"/><path id="_243" d="m1.25 24.31-.11-.48 166.9-37.37.1.48z" class="fil200"/><path id="_244" d="m1.18 23.99-.11-.49 166.89-37.37.11.49z" class="fil201"/><path id="_245" d="M1.11 23.66 1 23.18l166.89-37.37.11.48z" class="fil201"/><path id="_246" d="m1.03 23.34-.1-.49 166.89-37.37.11.49z" class="fil202"/><path id="_247" d="m.96 23.01-.11-.48 166.89-37.37.11.48z" class="fil203"/><path id="_248" d="m.89 22.69-.11-.49 166.89-37.37.11.49z" class="fil204"/><path id="_249" d="m.82 22.36-.11-.49L167.6-15.49l.11.48z" class="fil204"/><path id="_250" d="m.74 22.04-.11-.49 166.9-37.37.11.49z" class="fil204"/><path id="_251" d="m.67 21.71-.11-.49 166.89-37.36.11.48z" class="fil205"/><path id="_252" d="m.6 21.39-.11-.49 166.89-37.37.11.49z" class="fil205"/><path id="_253" d="m.53 21.06-.11-.49 166.89-37.36.11.48z" class="fil205"/><path id="_254" d="m.45 20.74-.11-.49 166.89-37.37.11.49z" class="fil205"/><path id="_255" d="M.38 20.41-3 5.3l166.89-37.37 3.38 15.11z" class="fil205"/></g><g style="clip-path:url(#id1)"><path d="m245.88 69.65 2.55-7.92 155.97 50.22-2.55 7.92z" class="fil2"/><path id="_1_0" d="m248.37 61.9.17-.51 155.97 50.22-.16.52z" class="fil2"/><path id="_2_1" d="m248.48 61.56.17-.52 155.97 50.23-.16.51z" class="fil2"/><path id="_3_2" d="m248.59 61.21.17-.51 155.97 50.22-.16.52z" class="fil2"/><path id="_4_3" d="m248.7 60.87.17-.52 155.97 50.23-.16.51z" class="fil2"/><path id="_5_4" d="m248.81 60.53.17-.52 155.98 50.22-.17.52z" class="fil2"/><path id="_6_5" d="m248.92 60.18.17-.51 155.98 50.22-.17.52z" class="fil2"/><path id="_7_6" d="m249.04 59.84.16-.52 155.98 50.22-.17.52z" class="fil2"/><path id="_8_7" d="m249.15 59.49.16-.51 155.98 50.22-.17.52z" class="fil3"/><path id="_9_8" d="m249.26 59.15.16-.52 155.98 50.23-.17.51z" class="fil4"/><path id="_10_9" d="m249.37 58.8.16-.51 155.98 50.22-.17.52z" class="fil4"/><path id="_11_10" d="m249.48 58.46.16-.52 155.98 50.23-.17.51z" class="fil4"/><path id="_12_11" d="m249.59 58.12.17-.52 155.97 50.22-.17.52z" class="fil4"/><path id="_13_12" d="m249.7 57.77.17-.51 155.97 50.22-.16.52z" class="fil4"/><path id="_14_13" d="m249.81 57.43.17-.52 155.97 50.23-.16.51z" class="fil5"/><path id="_15_14" d="m249.92 57.08.17-.51 155.97 50.22-.16.52z" class="fil6"/><path id="_16_15" d="m250.03 56.74.17-.52 155.97 50.23-.16.51z" class="fil6"/><path id="_17_16" d="m250.14 56.4.17-.52 155.98 50.22-.17.52z" class="fil6"/><path id="_18_17" d="m250.25 56.05.17-.51 155.98 50.22-.17.52z" class="fil7"/><path id="_19_18" d="m250.36 55.71.17-.52 155.98 50.22-.17.52z" class="fil7"/><path id="_20_19" d="m250.48 55.36.16-.51 155.98 50.22-.17.52z" class="fil8"/><path id="_21_20" d="m250.59 55.02.16-.52 155.98 50.23-.17.51z" class="fil9"/><path id="_22_21" d="m250.7 54.68.16-.52 155.98 50.22-.17.52z" class="fil9"/><path id="_23_22" d="m250.81 54.33.16-.52 155.98 50.23-.17.51z" class="fil9"/><path id="_24_23" d="m250.92 53.99.17-.52 155.97 50.22-.17.52z" class="fil10"/><path id="_25_24" d="m251.03 53.64.17-.51 155.97 50.22-.16.52z" class="fil10"/><path id="_26_25" d="m251.14 53.3.17-.52 155.97 50.23-.16.51z" class="fil10"/><path id="_27_26" d="m251.25 52.95.17-.51 155.97 50.22-.16.52z" class="fil11"/><path id="_28_27" d="m251.36 52.61.17-.52 155.97 50.23-.16.51z" class="fil11"/><path id="_29_28" d="m251.47 52.27.17-.52 155.98 50.22-.17.52z" class="fil12"/><path id="_30_29" d="m251.58 51.92.17-.51 155.98 50.22-.17.52z" class="fil13"/><path id="_31_30" d="m251.69 51.58.17-.52 155.98 50.23-.17.51z" class="fil13"/><path id="_32_31" d="m251.81 51.23.16-.51 155.98 50.22-.17.52z" class="fil14"/><path id="_33_32" d="m251.92 50.89.16-.52 155.98 50.23-.17.51z" class="fil15"/><path id="_34_33" d="m252.03 50.55.16-.52 155.98 50.22-.17.52z" class="fil16"/><path id="_35_34" d="m252.14 50.2.16-.51 155.98 50.22-.17.51z" class="fil17"/><path id="_36_35" d="m252.25 49.86.16-.52 155.98 50.22-.17.52z" class="fil18"/><path id="_37_36" d="m252.36 49.51.17-.51L408.5 99.22l-.16.52z" class="fil18"/><path id="_38_37" d="m252.47 49.17.17-.52 155.97 50.23-.16.51z" class="fil19"/><path id="_39_38" d="m252.58 48.82.17-.51 155.97 50.22-.16.52z" class="fil19"/><path id="_40_39" d="m252.69 48.48.17-.52 155.97 50.23-.16.51z" class="fil20"/><path id="_41_40" d="m252.8 48.14.17-.52 155.97 50.22-.16.52z" class="fil21"/><path id="_42_41" d="m252.91 47.79.17-.51L409.06 97.5l-.17.52z" class="fil22"/><path id="_43_42" d="m253.02 47.45.17-.52 155.98 50.23-.17.51z" class="fil23"/><path id="_44_43" d="m253.14 47.1.16-.51 155.98 50.22-.17.52z" class="fil24"/><path id="_45_44" d="m253.25 46.76.16-.52 155.98 50.23-.17.51z" class="fil25"/><path id="_46_45" d="m253.36 46.42.16-.52L409.5 96.12l-.17.52z" class="fil26"/><path id="_47_46" d="m253.47 46.07.16-.51 155.98 50.22-.17.52z" class="fil27"/><path id="_48_47" d="m253.58 45.73.16-.52 155.98 50.22-.17.52z" class="fil27"/><path id="_49_48" d="m253.69 45.38.17-.51 155.97 50.22-.16.52z" class="fil28"/><path id="_50_49" d="m253.8 45.04.17-.52 155.97 50.23-.16.51z" class="fil29"/><path id="_51_50" d="m253.91 44.69.17-.51L410.05 94.4l-.16.52z" class="fil30"/><path id="_52_51" d="m254.02 44.35.17-.52 155.97 50.23-.16.51z" class="fil31"/><path id="_53_52" d="m254.13 44.01.17-.52 155.97 50.22-.16.52z" class="fil32"/><path id="_54_53" d="m254.24 43.66.17-.51 155.98 50.22-.17.52z" class="fil33"/><path id="_55_54" d="m254.35 43.32.17-.52L410.5 93.03l-.17.51z" class="fil34"/><path id="_56_55" d="m254.47 42.97.16-.51 155.98 50.22-.17.52z" class="fil35"/><path id="_57_56" d="m254.58 42.63.16-.52 155.98 50.23-.17.51z" class="fil36"/><path id="_58_57" d="m254.69 42.29.16-.52 155.98 50.22-.17.52z" class="fil37"/><path id="_59_58" d="m254.8 41.94.16-.51 155.98 50.22-.17.52z" class="fil38"/><path id="_60_59" d="m254.91 41.6.16-.52 155.98 50.23-.17.51z" class="fil39"/><path id="_61_60" d="m255.02 41.25.17-.51 155.97 50.22-.17.52z" class="fil40"/><path id="_62_61" d="m255.13 40.91.17-.52 155.97 50.23-.16.51z" class="fil41"/><path id="_63_62" d="m255.24 40.56.17-.51 155.97 50.22-.16.52z" class="fil42"/><path id="_64_63" d="m255.35 40.22.17-.52 155.97 50.23-.16.51z" class="fil43"/><path id="_65_64" d="m255.46 39.88.17-.52L411.6 89.58l-.16.52z" class="fil44"/><path id="_66_65" d="m255.57 39.53.17-.51 155.98 50.22-.17.52z" class="fil44"/><path id="_67_66" d="m255.68 39.19.17-.52L411.83 88.9l-.17.51z" class="fil45"/><path id="_68_67" d="m255.79 38.84.17-.51 155.98 50.22-.17.52z" class="fil46"/><path id="_69_68" d="m255.91 38.5.16-.52 155.98 50.23-.17.51z" class="fil46"/><path id="_70_69" d="m256.02 38.16.16-.52 155.98 50.22-.17.52z" class="fil47"/><path id="_71_70" d="m256.13 37.81.16-.51 155.98 50.22-.17.52z" class="fil48"/><path id="_72_71" d="m256.24 37.47.16-.52 155.98 50.23-.17.51z" class="fil49"/><path id="_73_72" d="m256.35 37.12.17-.51 155.97 50.22-.17.52z" class="fil50"/><path id="_74_73" d="m256.46 36.78.17-.52L412.6 86.49l-.16.51z" class="fil51"/><path id="_75_74" d="m256.57 36.44.17-.52 155.97 50.22-.16.52z" class="fil52"/><path id="_76_75" d="m256.68 36.09.17-.52L412.82 85.8l-.16.51z" class="fil53"/><path id="_77_76" d="m256.79 35.75.17-.52 155.97 50.22-.16.52z" class="fil54"/><path id="_78_77" d="m256.9 35.4.17-.51 155.98 50.22-.17.52z" class="fil55"/><path id="_79_78" d="m257.01 35.06.17-.52 155.98 50.23-.17.51z" class="fil56"/><path id="_80_79" d="m257.12 34.71.17-.51 155.98 50.22-.17.52z" class="fil57"/><path id="_81_80" d="m257.24 34.37.16-.52 155.98 50.23-.17.51z" class="fil58"/><path id="_82_81" d="m257.35 34.03.16-.52 155.98 50.22-.17.52z" class="fil59"/><path id="_83_82" d="m257.46 33.68.16-.51L413.6 83.39l-.17.52z" class="fil60"/><path id="_84_83" d="m257.57 33.34.16-.52 155.98 50.23-.17.51z" class="fil61"/><path id="_85_84" d="m257.68 32.99.17-.51L413.82 82.7l-.17.52z" class="fil62"/><path id="_86_85" d="m257.79 32.65.17-.52 155.97 50.23-.16.51z" class="fil63"/><path id="_87_86" d="m257.9 32.31.17-.52 155.97 50.22-.16.52z" class="fil63"/><path id="_88_87" d="m258.01 31.96.17-.51 155.97 50.22-.16.51z" class="fil64"/><path id="_89_88" d="m258.12 31.62.17-.52 155.97 50.22-.16.52z" class="fil65"/><path id="_90_89" d="m258.23 31.27.17-.51 155.97 50.22-.16.52z" class="fil66"/><path id="_91_90" d="m258.34 30.93.17-.52 155.98 50.23-.17.51z" class="fil67"/><path id="_92_91" d="m258.45 30.58.17-.51L414.6 80.29l-.17.52z" class="fil68"/><path id="_93_92" d="m258.57 30.24.16-.52 155.98 50.23-.17.51z" class="fil69"/><path id="_94_93" d="m258.68 29.9.16-.52L414.82 79.6l-.17.52z" class="fil70"/><path id="_95_94" d="m258.79 29.55.16-.51 155.98 50.22-.17.52z" class="fil71"/><path id="_96_95" d="m258.9 29.21.16-.52 155.98 50.23-.17.51z" class="fil72"/><path id="_97_96" d="m259.01 28.86.16-.51 155.98 50.22-.17.52z" class="fil73"/><path id="_98_97" d="m259.12 28.52.17-.52 155.97 50.23-.16.51z" class="fil74"/><path id="_99_98" d="m259.23 28.18.17-.52 155.97 50.22-.16.52z" class="fil75"/><path id="_100_99" d="m259.34 27.83.17-.51 155.97 50.22-.16.52z" class="fil75"/><path id="_101_100" d="m259.45 27.49.17-.52 155.97 50.22-.16.52z" class="fil76"/><path id="_102_101" d="m259.56 27.14.17-.51L415.7 76.85l-.16.52z" class="fil77"/><path id="_103_102" d="m259.67 26.8.17-.52 155.98 50.23-.17.51z" class="fil78"/><path id="_104_103" d="m259.78 26.46.17-.52 155.98 50.22-.17.52z" class="fil79"/><path id="_105_104" d="m259.9 26.11.16-.52 155.98 50.23-.17.51z" class="fil80"/><path id="_106_105" d="m260.01 25.77.16-.52 155.98 50.22-.17.52z" class="fil81"/><path id="_107_106" d="m260.12 25.42.16-.51 155.98 50.22-.17.52z" class="fil82"/><path id="_108_107" d="m260.23 25.08.16-.52 155.98 50.23-.17.51z" class="fil83"/><path id="_109_108" d="m260.34 24.73.16-.51 155.98 50.22-.17.52z" class="fil84"/><path id="_110_109" d="m260.45 24.39.16-.52L416.59 74.1l-.17.51z" class="fil85"/><path id="_111_110" d="m260.56 24.05.17-.52L416.7 73.75l-.16.52z" class="fil86"/><path id="_112_111" d="m260.67 23.7.17-.51 155.97 50.22-.16.52z" class="fil86"/><path id="_113_112" d="m260.78 23.36.17-.52 155.97 50.23-.16.51z" class="fil87"/><path id="_114_113" d="m260.89 23.01.17-.51 155.97 50.22-.16.52z" class="fil88"/><path id="_115_114" d="m261 22.67.17-.52 155.97 50.23-.16.51z" class="fil89"/><path id="_116_115" d="m261.11 22.33.17-.52 155.98 50.22-.17.52z" class="fil90"/><path id="_117_116" d="m261.22 21.98.17-.51 155.98 50.22-.17.51z" class="fil91"/><path id="_118_117" d="m261.34 21.64.16-.52 155.98 50.22-.17.52z" class="fil92"/><path id="_119_118" d="m261.45 21.29.16-.51L417.59 71l-.17.52z" class="fil93"/><path id="_120_119" d="m261.56 20.95.16-.52L417.7 70.66l-.17.51z" class="fil94"/><path id="_121_120" d="m261.67 20.6.16-.51 155.98 50.22-.17.52z" class="fil94"/><path id="_122_121" d="m261.78 20.26.16-.52 155.98 50.23-.17.51z" class="fil95"/><path id="_123_122" d="m261.89 19.92.17-.52 155.97 50.22-.16.52z" class="fil95"/><path id="_124_123" d="m262 19.57.17-.51 155.97 50.22-.16.52z" class="fil96"/><path id="_125_124" d="m262.11 19.23.17-.52 155.97 50.23-.16.51z" class="fil97"/><path id="_126_125" d="m262.22 18.88.17-.51 155.97 50.22-.16.52z" class="fil98"/><path id="_127_126" d="m262.33 18.54.17-.52 155.97 50.23-.16.51z" class="fil99"/><path id="_128_127" d="m262.44 18.2.17-.52L418.59 67.9l-.17.52z" class="fil100"/><path id="_129_128" d="m262.55 17.85.17-.51L418.7 67.56l-.17.52z" class="fil100"/><path id="_130_129" d="m262.67 17.51.16-.52 155.98 50.22-.17.52z" class="fil101"/><path id="_131_130" d="m262.78 17.16.16-.51 155.98 50.22-.17.52z" class="fil101"/><path id="_132_131" d="m262.89 16.82.16-.52 155.98 50.23-.17.51z" class="fil102"/><path id="_133_132" d="m263 16.48.16-.52 155.98 50.22-.17.52z" class="fil103"/><path id="_134_133" d="m263.11 16.13.16-.52 155.98 50.23-.17.51z" class="fil104"/><path id="_135_134" d="m263.22 15.79.17-.52 155.97 50.22-.16.52z" class="fil104"/><path id="_136_135" d="m263.33 15.44.17-.51 155.97 50.22-.16.52z" class="fil105"/><path id="_137_136" d="m263.44 15.1.17-.52 155.97 50.23-.16.51z" class="fil106"/><path id="_138_137" d="m263.55 14.75.17-.51 155.97 50.22-.16.52z" class="fil106"/><path id="_139_138" d="m263.66 14.41.17-.52L419.8 64.12l-.16.51z" class="fil107"/><path id="_140_139" d="m263.77 14.07.17-.52 155.98 50.22-.17.52z" class="fil108"/><path id="_141_140" d="m263.88 13.72.17-.51 155.98 50.22-.17.52z" class="fil109"/><path id="_142_141" d="m263.99 13.38.17-.52 155.98 50.23-.17.51z" class="fil109"/><path id="_143_142" d="m264.11 13.03.16-.51 155.98 50.22-.17.52z" class="fil110"/><path id="_144_143" d="m264.22 12.69.16-.52L420.36 62.4l-.17.51z" class="fil111"/><path id="_145_144" d="m264.33 12.35.16-.52 155.98 50.22-.17.52z" class="fil112"/><path id="_146_145" d="m264.44 12 .16-.51 155.98 50.22-.17.51z" class="fil113"/><path id="_147_146" d="m264.55 11.66.17-.52 155.97 50.22-.17.52z" class="fil114"/><path id="_148_147" d="m264.66 11.31.17-.51L420.8 61.02l-.16.52z" class="fil114"/><path id="_149_148" d="m264.77 10.97.17-.52 155.97 50.23-.16.51z" class="fil115"/><path id="_150_149" d="m264.88 10.62.17-.51 155.97 50.22-.16.52z" class="fil116"/><path id="_151_150" d="m264.99 10.28.17-.52 155.97 50.23-.16.51z" class="fil117"/><path id="_152_151" d="m265.1 9.94.17-.52 155.98 50.22-.17.52z" class="fil118"/><path id="_153_152" d="m265.21 9.59.17-.51L421.36 59.3l-.17.52z" class="fil119"/><path id="_154_153" d="m265.32 9.25.17-.52 155.98 50.23-.17.51z" class="fil120"/><path id="_155_154" d="m265.44 8.9.16-.51 155.98 50.22-.17.52z" class="fil121"/><path id="_156_155" d="m265.55 8.56.16-.52 155.98 50.23-.17.51z" class="fil122"/><path id="_157_156" d="m265.66 8.22.16-.52L421.8 57.92l-.17.52z" class="fil123"/><path id="_158_157" d="m265.77 7.87.16-.52 155.98 50.23-.17.52z" class="fil124"/><path id="_159_158" d="m265.88 7.53.17-.52 155.97 50.22-.17.52z" class="fil125"/><path id="_160_159" d="m265.99 7.18.17-.51 155.97 50.22-.16.52z" class="fil126"/><path id="_161_160" d="m266.1 6.84.17-.52 155.97 50.23-.16.51z" class="fil126"/><path id="_162_161" d="m266.21 6.49.17-.51L422.35 56.2l-.16.52z" class="fil127"/><path id="_163_162" d="m266.32 6.15.17-.52 155.97 50.23-.16.51z" class="fil127"/><path id="_164_163" d="m266.43 5.81.17-.52 155.97 50.22-.16.52z" class="fil127"/><path id="_165_164" d="m266.54 5.46.17-.51 155.98 50.22-.17.52z" class="fil127"/><path id="_166_165" d="m266.65 5.12.17-.52L422.8 54.83l-.17.51z" class="fil127"/><path id="_167_166" d="m266.77 4.77.16-.51 155.98 50.22-.17.52z" class="fil127"/><path id="_168_167" d="m266.88 4.43.16-.52 155.98 50.23-.17.51z" class="fil128"/><path id="_169_168" d="m266.99 4.09.16-.52 155.98 50.22-.17.52z" class="fil129"/><path id="_170_169" d="m267.1 3.74.16-.51 155.98 50.22-.17.52z" class="fil129"/><path id="_171_170" d="m267.21 3.4.16-.52L423.35 53.1l-.17.52z" class="fil130"/><path id="_172_171" d="m267.32 3.05.17-.51 155.97 50.22-.16.52z" class="fil131"/><path id="_173_172" d="m267.43 2.71.17-.52 155.97 50.23-.16.51z" class="fil132"/><path id="_174_173" d="m267.54 2.36.17-.51 155.97 50.22-.16.52z" class="fil133"/><path id="_175_174" d="m267.65 2.02.17-.52 155.97 50.23-.16.51z" class="fil134"/><path id="_176_175" d="m267.76 1.68.17-.52L423.9 51.38l-.16.52z" class="fil134"/><path id="_177_176" d="m267.87 1.33.17-.51 155.98 50.22-.17.52z" class="fil135"/><path id="_178_177" d="m267.98.99.17-.52L424.13 50.7l-.17.51z" class="fil136"/><path id="_179_178" d="m268.1.64.16-.51 155.98 50.22-.17.52z" class="fil137"/><path id="_180_179" d="m268.21.3.16-.52 155.98 50.23-.17.51z" class="fil138"/><path id="_181_180" d="m268.32-.04.16-.52 155.98 50.22-.17.52z" class="fil139"/><path id="_182_181" d="m268.43-.39.16-.51 155.98 50.22-.17.52z" class="fil140"/><path id="_183_182" d="m268.54-.73.16-.52 155.98 50.22-.17.52z" class="fil141"/><path id="_184_183" d="m268.65-1.08.17-.51 155.97 50.22-.16.52z" class="fil142"/><path id="_185_184" d="m268.76-1.42.17-.52L424.9 48.29l-.16.51z" class="fil143"/><path id="_186_185" d="m268.87-1.76.17-.52 155.97 50.22-.16.52z" class="fil144"/><path id="_187_186" d="m268.98-2.11.17-.52L425.12 47.6l-.16.51z" class="fil145"/><path id="_188_187" d="m269.09-2.45.17-.52 155.97 50.22-.16.52z" class="fil146"/><path id="_189_188" d="m269.2-2.8.17-.51 155.98 50.22-.17.52z" class="fil147"/><path id="_190_189" d="m269.31-3.14.17-.52 155.98 50.23-.17.51z" class="fil148"/><path id="_191_190" d="m269.42-3.49.17-.51 155.98 50.22-.17.52z" class="fil149"/><path id="_192_191" d="m269.54-3.83.16-.52 155.98 50.23-.17.51z" class="fil150"/><path id="_193_192" d="m269.65-4.17.16-.52 155.98 50.22-.17.52z" class="fil151"/><path id="_194_193" d="m269.76-4.52.16-.51L425.9 45.19l-.17.52z" class="fil152"/><path id="_195_194" d="m269.87-4.86.16-.52 155.98 50.23-.17.51z" class="fil153"/><path id="_196_195" d="m269.98-5.21.17-.51L426.12 44.5l-.17.52z" class="fil154"/><path id="_197_196" d="m270.09-5.55.17-.52 155.97 50.23-.16.51z" class="fil155"/><path id="_198_197" d="m270.2-5.89.17-.52 155.97 50.22-.16.52z" class="fil156"/><path id="_199_198" d="m270.31-6.24.17-.51 155.97 50.22-.16.51z" class="fil157"/><path id="_200_199" d="m270.42-6.58.17-.52 155.97 50.22-.16.52z" class="fil158"/><path id="_201_200" d="m270.53-6.93.17-.51 155.98 50.22-.17.52z" class="fil159"/><path id="_202_201" d="m270.64-7.27.17-.52 155.98 50.23-.17.51z" class="fil160"/><path id="_203_202" d="m270.75-7.62.17-.51L426.9 42.09l-.17.52z" class="fil161"/><path id="_204_203" d="m270.87-7.96.16-.52 155.98 50.23-.17.51z" class="fil162"/><path id="_205_204" d="m270.98-8.3.16-.52L427.12 41.4l-.17.52z" class="fil163"/><path id="_206_205" d="m271.09-8.65.16-.51 155.98 50.22-.17.52z" class="fil164"/><path id="_207_206" d="m271.2-8.99.16-.52 155.98 50.23-.17.51z" class="fil165"/><path id="_208_207" d="m271.31-9.34.17-.51 155.97 50.22-.17.52z" class="fil166"/><path id="_209_208" d="m271.42-9.68.17-.52 155.97 50.23-.16.51z" class="fil167"/><path id="_210_209" d="m271.53-10.02.17-.52 155.97 50.22-.16.52z" class="fil168"/><path id="_211_210" d="m271.64-10.37.17-.51 155.97 50.22-.16.52z" class="fil169"/><path id="_212_211" d="m271.75-10.71.17-.52 155.97 50.22-.16.52z" class="fil170"/><path id="_213_212" d="m271.86-11.06.17-.51 155.98 50.22-.17.52z" class="fil171"/><path id="_214_213" d="m271.97-11.4.17-.52 155.98 50.23-.17.51z" class="fil172"/><path id="_215_214" d="m272.08-11.74.17-.52 155.98 50.22-.17.52z" class="fil173"/><path id="_216_215" d="m272.2-12.09.16-.52 155.98 50.23-.17.51z" class="fil174"/><path id="_217_216" d="m272.31-12.43.16-.52 155.98 50.22-.17.52z" class="fil175"/><path id="_218_217" d="m272.42-12.78.16-.51 155.98 50.22-.17.52z" class="fil176"/><path id="_219_218" d="m272.53-13.12.16-.52 155.98 50.23-.17.51z" class="fil177"/><path id="_220_219" d="m272.64-13.47.16-.51 155.98 50.22-.17.52z" class="fil178"/><path id="_221_220" d="m272.75-13.81.17-.52L428.89 35.9l-.16.51z" class="fil179"/><path id="_222_221" d="m272.86-14.15.17-.52L429 35.55l-.16.52z" class="fil180"/><path id="_223_222" d="m272.97-14.5.17-.51 155.97 50.22-.16.52z" class="fil181"/><path id="_224_223" d="m273.08-14.84.17-.52 155.97 50.23-.16.51z" class="fil182"/><path id="_225_224" d="m273.19-15.19.17-.51 155.97 50.22-.16.52z" class="fil183"/><path id="_226_225" d="m273.3-15.53.17-.52 155.98 50.23-.17.51z" class="fil184"/><path id="_227_226" d="m273.41-15.87.17-.52 155.98 50.22-.17.52z" class="fil185"/><path id="_228_227" d="m273.53-16.22.16-.52 155.98 50.23-.17.51z" class="fil186"/><path id="_229_228" d="m273.64-16.56.16-.52 155.98 50.22-.17.52z" class="fil187"/><path id="_230_229" d="m273.75-16.91.16-.51L429.89 32.8l-.17.52z" class="fil188"/><path id="_231_230" d="m273.86-17.25.16-.52L430 32.46l-.17.51z" class="fil189"/><path id="_232_231" d="m273.97-17.6.16-.51 155.98 50.22-.17.52z" class="fil190"/><path id="_233_232" d="m274.08-17.94.17-.52 155.97 50.23-.17.51z" class="fil191"/><path id="_234_233" d="m274.19-18.28.17-.52 155.97 50.22-.16.52z" class="fil192"/><path id="_235_234" d="m274.3-18.63.17-.51 155.97 50.22-.16.52z" class="fil193"/><path id="_236_235" d="m274.41-18.97.17-.52 155.97 50.23-.16.51z" class="fil194"/><path id="_237_236" d="m274.52-19.32.17-.51 155.97 50.22-.16.52z" class="fil195"/><path id="_238_237" d="m274.63-19.66.17-.52 155.98 50.23-.17.51z" class="fil196"/><path id="_239_238" d="m274.74-20 .17-.52L430.89 29.7l-.17.52z" class="fil197"/><path id="_240_239" d="m274.85-20.35.17-.51L431 29.36l-.17.52z" class="fil198"/><path id="_241_240" d="m274.97-20.69.16-.52 155.98 50.22-.17.52z" class="fil199"/><path id="_242_241" d="m275.08-21.04.16-.51 155.98 50.22-.17.52z" class="fil200"/><path id="_243_242" d="m275.19-21.38.16-.52 155.98 50.23-.17.51z" class="fil200"/><path id="_244_243" d="m275.3-21.73.16-.51 155.98 50.22-.17.52z" class="fil201"/><path id="_245_244" d="m275.41-22.07.16-.52 155.98 50.23-.17.51z" class="fil201"/><path id="_246_245" d="m275.52-22.41.17-.52 155.97 50.22-.16.52z" class="fil202"/><path id="_247_246" d="m275.63-22.76.17-.51 155.97 50.22-.16.52z" class="fil203"/><path id="_248_247" d="m275.74-23.1.17-.52 155.97 50.23-.16.51z" class="fil204"/><path id="_249_248" d="m275.85-23.45.17-.51 155.97 50.22-.16.52z" class="fil204"/><path id="_250_249" d="m275.96-23.79.17-.52L432.1 25.92l-.16.51z" class="fil204"/><path id="_251_250" d="m276.07-24.13.17-.52 155.98 50.22-.17.52z" class="fil205"/><path id="_252_251" d="m276.18-24.48.17-.51 155.98 50.22-.17.52z" class="fil205"/><path id="_253_252" d="m276.3-24.82.16-.52 155.98 50.23-.17.51z" class="fil205"/><path id="_254_253" d="m276.41-25.17.16-.51 155.98 50.22-.17.52z" class="fil205"/><path id="_255_254" d="m276.52-25.51 5.82-18.1L438.32 6.62l-5.83 18.09z" class="fil205"/></g><g style="clip-path:url(#id2)"><path d="m156.04 40.55 1.69-1.81 61.52 57.55-1.69 1.81z" class="fil2"/><path id="_1_255" d="m157.63 38.86.32-.35 61.52 57.54-.32.36z" class="fil2"/><path id="_2_256" d="m157.84 38.62.33-.35 61.52 57.55-.33.35z" class="fil2"/><path id="_3_257" d="m158.06 38.39.33-.35 61.52 57.55-.33.35z" class="fil2"/><path id="_4_258" d="m158.28 38.16.33-.35 61.52 57.54-.33.35z" class="fil2"/><path id="_5_259" d="m158.5 37.92.33-.35 61.52 57.55-.33.35z" class="fil2"/><path id="_6_260" d="m158.72 37.69.33-.35 61.52 57.55-.33.35z" class="fil2"/><path id="_7_261" d="m158.94 37.46.32-.35 61.52 57.54-.32.35z" class="fil2"/><path id="_8_262" d="m159.16 37.22.32-.35L221 94.42l-.32.35z" class="fil2"/><path id="_9_263" d="m159.37 36.99.33-.35 61.52 57.55-.33.35z" class="fil3"/><path id="_10_264" d="m159.59 36.76.33-.36 61.52 57.55-.33.35z" style="fill:#b39b75"/><path id="_11_265" d="m159.81 36.52.33-.35 61.52 57.55-.33.35z" class="fil4"/><path id="_12_266" d="m160.03 36.29.33-.35 61.52 57.54-.33.35z" class="fil4"/><path id="_13_267" d="m160.25 36.05.33-.35 61.52 57.55-.33.35z" class="fil4"/><path id="_14_268" d="m160.47 35.82.32-.35 61.52 57.55-.32.35z" class="fil4"/><path id="_15_269" d="m160.69 35.59.32-.35 61.52 57.54-.32.35z" class="fil4"/><path id="_16_270" d="m160.9 35.35.33-.35 61.52 57.55-.33.35z" class="fil5"/><path id="_17_271" d="m161.12 35.12.33-.35 61.52 57.55-.33.35z" class="fil5"/><path id="_18_272" d="m161.34 34.89.33-.35 61.52 57.54-.33.35z" class="fil6"/><path id="_19_273" d="m161.56 34.65.33-.35 61.52 57.55-.33.35z" class="fil6"/><path id="_20_274" d="m161.78 34.42.33-.35 61.52 57.55-.33.35z" class="fil6"/><path id="_21_275" d="m162 34.19.32-.36 61.52 57.55-.32.35z" class="fil7"/><path id="_22_276" d="m162.22 33.95.32-.35 61.52 57.55-.32.35z" class="fil7"/><path id="_23_277" d="m162.43 33.72.33-.35 61.52 57.54-.33.35z" class="fil8"/><path id="_24_278" d="m162.65 33.48.33-.35 61.52 57.55-.33.35z" class="fil8"/><path id="_25_279" d="m162.87 33.25.33-.35 61.52 57.55-.33.35z" class="fil9"/><path id="_26_280" d="m163.09 33.02.33-.35 61.52 57.54-.33.35z" class="fil9"/><path id="_27_281" d="m163.31 32.78.33-.35 61.52 57.55-.33.35z" class="fil9"/><path id="_28_282" d="m163.53 32.55.32-.35 61.52 57.55-.32.35z" class="fil10"/><path id="_29_283" d="m163.75 32.32.32-.36 61.52 57.55-.32.35z" class="fil10"/><path id="_30_284" d="m163.96 32.08.33-.35 61.52 57.55-.33.35z" class="fil10"/><path id="_31_285" d="m164.18 31.85.33-.35 61.52 57.55-.33.35z" class="fil10"/><path id="_32_286" d="m164.4 31.61.33-.35 61.52 57.55-.33.35z" class="fil11"/><path id="_33_287" d="m164.62 31.38.33-.35 61.52 57.55-.33.35z" class="fil11"/><path id="_34_288" d="m164.84 31.15.33-.35 61.52 57.54-.33.35z" class="fil12"/><path id="_35_289" d="m165.06 30.91.32-.35 61.52 57.55-.32.35z" class="fil13"/><path id="_36_290" d="m165.28 30.68.32-.35 61.52 57.55-.32.35z" class="fil13"/><path id="_37_291" d="m165.49 30.45.33-.35 61.52 57.54-.33.35z" class="fil14"/><path id="_38_292" d="m165.71 30.21.33-.35 61.52 57.55-.33.35z" style="fill:#b8a17a"/><path id="_39_293" d="m165.93 29.98.33-.35 61.52 57.55-.33.35z" class="fil15"/><path id="_40_294" d="m166.15 29.75.33-.36L228 86.94l-.33.35z" class="fil16"/><path id="_41_295" d="m166.37 29.51.33-.35 61.52 57.55-.33.35z" class="fil16"/><path id="_42_296" d="m166.59 29.28.32-.35 61.52 57.54-.32.35z" class="fil18"/><path id="_43_297" d="m166.81 29.04.32-.35 61.52 57.55-.32.35z" class="fil18"/><path id="_44_298" d="m167.02 28.81.33-.35 61.52 57.55-.33.35z" style="fill:#baa27b"/><path id="_45_299" d="m167.24 28.58.33-.35 61.52 57.54-.33.35z" class="fil19"/><path id="_46_300" d="m167.46 28.34.33-.35 61.52 57.55-.33.35z" class="fil19"/><path id="_47_301" d="m167.68 28.11.33-.35 61.52 57.55-.33.35z" class="fil21"/><path id="_48_302" d="m167.9 27.88.33-.35 61.52 57.54-.33.35z" class="fil21"/><path id="_49_303" d="m168.12 27.64.32-.35 61.52 57.55-.32.35z" style="fill:#bba57c"/><path id="_50_304" d="m168.34 27.41.32-.35 61.52 57.55-.32.35z" style="fill:#bca57d"/><path id="_51_305" d="m168.55 27.18.33-.36 61.52 57.55-.33.35z" class="fil23"/><path id="_52_306" d="m168.77 26.94.33-.35 61.52 57.55-.33.35z" class="fil24"/><path id="_53_307" d="m168.99 26.71.33-.35 61.52 57.54-.33.35z" class="fil25"/><path id="_54_308" d="m169.21 26.47.33-.35 61.52 57.55-.33.35z" class="fil25"/><path id="_55_309" d="m169.43 26.24.33-.35 61.52 57.55-.33.35z" class="fil27"/><path id="_56_310" d="m169.65 26.01.32-.35 61.52 57.54-.32.35z" class="fil27"/><path id="_57_311" d="m169.87 25.77.32-.35 61.52 57.55-.32.35z" style="fill:#bea87f"/><path id="_58_312" d="m170.08 25.54.33-.35 61.52 57.55-.33.35z" class="fil28"/><path id="_59_313" d="m170.3 25.31.33-.35 61.52 57.54-.33.35z" style="fill:#bfa97f"/><path id="_60_314" d="m170.52 25.07.33-.35 61.52 57.55-.33.35z" class="fil30"/><path id="_61_315" d="m170.74 24.84.33-.35 61.52 57.54-.33.36z" style="fill:#c0aa80"/><path id="_62_316" d="m170.96 24.6.33-.35 61.52 57.55-.33.35z" style="fill:#c0aa81"/><path id="_63_317" d="m171.18 24.37.32-.35 61.52 57.55-.32.35z" style="fill:#c1ab81"/><path id="_64_318" d="m171.4 24.14.32-.35 61.52 57.54-.32.35z" class="fil33"/><path id="_65_319" d="m171.61 23.9.33-.35 61.52 57.55-.33.35z" class="fil34"/><path id="_66_320" d="m171.83 23.67.33-.35 61.52 57.55-.33.35z" class="fil35"/><path id="_67_321" d="m172.05 23.44.33-.35 61.52 57.54-.33.35z" class="fil36"/><path id="_68_322" d="m172.27 23.2.33-.35 61.52 57.55-.33.35z" class="fil37"/><path id="_69_323" d="m172.49 22.97.33-.35 61.52 57.55-.33.35z" class="fil38"/><path id="_70_324" d="m172.71 22.74.32-.35 61.52 57.54-.32.35z" style="fill:#c4af84"/><path id="_71_325" d="m172.93 22.5.32-.35 61.52 57.55-.32.35z" class="fil39"/><path id="_72_326" d="m173.14 22.27.33-.35 61.52 57.54-.33.36z" class="fil40"/><path id="_73_327" d="m173.36 22.03.33-.35 61.52 57.55-.33.35z" style="fill:#c5b085"/><path id="_74_328" d="m173.58 21.8.33-.35L235.43 79l-.33.35z" style="fill:#c6b085"/><path id="_75_329" d="m173.8 21.57.33-.35 61.52 57.54-.33.35z" class="fil43"/><path id="_76_330" d="m174.02 21.33.33-.35 61.52 57.55-.33.35z" style="fill:#c6b186"/><path id="_77_331" d="m174.24 21.1.32-.35 61.52 57.55-.32.35z" class="fil44"/><path id="_78_332" d="m174.46 20.87.32-.35 61.52 57.54-.32.35z" style="fill:#c7b287"/><path id="_79_333" d="m174.67 20.63.33-.35 61.52 57.55-.33.35z" class="fil45"/><path id="_80_334" d="m174.89 20.4.33-.35 61.52 57.55-.33.35z" style="fill:#c8b387"/><path id="_81_335" d="m175.11 20.17.33-.36 61.52 57.55-.33.35z" class="fil46"/><path id="_82_336" d="m175.33 19.93.33-.35 61.52 57.55-.33.35z" style="fill:#c9b488"/><path id="_83_337" d="m175.55 19.7.33-.35 61.52 57.54-.33.36z" class="fil47"/><path id="_84_338" d="m175.77 19.46.32-.35 61.52 57.55-.32.35z" style="fill:#cab589"/><path id="_85_339" d="m175.99 19.23.32-.35 61.52 57.55-.32.35z" class="fil49"/><path id="_86_340" d="m176.2 19 .33-.35 61.52 57.54-.33.35z" style="fill:#cbb68a"/><path id="_87_341" d="m176.42 18.76.33-.35 61.52 57.55-.33.35z" class="fil51"/><path id="_88_342" d="m176.64 18.53.33-.35 61.52 57.55-.33.35z" class="fil51"/><path id="_89_343" d="m176.86 18.3.33-.35 61.52 57.54-.33.35z" class="fil53"/><path id="_90_344" d="m177.08 18.06.33-.35 61.52 57.55-.33.35z" style="fill:#cdba8d"/><path id="_91_345" d="m177.3 17.83.32-.35 61.52 57.55-.32.35z" class="fil54"/><path id="_92_346" d="m177.52 17.59.32-.35 61.52 57.55-.32.35z" class="fil55"/><path id="_93_347" d="m177.73 17.36.33-.35 61.52 57.55-.33.35z" style="fill:#cfbb8e"/><path id="_94_348" d="m177.95 17.13.33-.35 61.52 57.54-.33.35z" class="fil57"/><path id="_95_349" d="m178.17 16.89.33-.35 61.52 57.55-.33.35z" class="fil58"/><path id="_96_350" d="m178.39 16.66.33-.35 61.52 57.55-.33.35z" style="fill:#d0bc8f"/><path id="_97_351" d="m178.61 16.43.33-.35 61.52 57.54-.33.35z" style="fill:#d1bd90"/><path id="_98_352" d="m178.83 16.19.32-.35 61.52 57.55-.32.35z" class="fil60"/><path id="_99_353" d="m179.05 15.96.32-.35 61.52 57.55-.32.35z" class="fil61"/><path id="_100_354" d="m179.26 15.73.33-.35 61.52 57.54-.33.35z" class="fil62"/><path id="_101_355" d="m179.48 15.49.33-.35 61.52 57.55-.33.35z" style="fill:#d3bf91"/><path id="_102_356" d="m179.7 15.26.33-.35 61.52 57.54-.33.36z" class="fil63"/><path id="_103_357" d="m179.92 15.02.33-.35 61.52 57.55-.33.35z" style="fill:#d4c092"/><path id="_104_358" d="m180.14 14.79.33-.35 61.52 57.55-.33.35z" class="fil64"/><path id="_105_359" d="m180.36 14.56.32-.35 61.52 57.54-.32.35z" style="fill:#d5c293"/><path id="_106_360" d="m180.58 14.32.32-.35 61.52 57.55-.32.35z" class="fil66"/><path id="_107_361" d="m180.79 14.09.33-.35 61.52 57.55-.33.35z" class="fil232"/><path id="_108_362" d="m181.01 13.86.33-.35 61.52 57.54-.33.35z" class="fil232"/><path id="_109_363" d="m181.23 13.62.33-.35 61.52 57.55-.33.35z" style="fill:#d6c495"/><path id="_110_364" d="m181.45 13.39.33-.35 61.52 57.55-.33.35z" class="fil69"/><path id="_111_365" d="m181.67 13.16.33-.36 61.52 57.55-.33.35z" style="fill:#d8c697"/><path id="_112_366" d="m181.89 12.92.32-.35 61.52 57.55-.32.35z" class="fil71"/><path id="_113_367" d="m182.11 12.69.32-.35 61.52 57.54-.32.36z" style="fill:#d9c798"/><path id="_114_368" d="m182.32 12.45.33-.35 61.52 57.55-.33.35z" class="fil73"/><path id="_115_369" d="m182.54 12.22.33-.35 61.52 57.55-.33.35z" class="fil74"/><path id="_116_370" d="m182.76 11.99.33-.35 61.52 57.54-.33.35z" style="fill:#dbc899"/><path id="_117_371" d="m182.98 11.75.33-.35 61.52 57.55-.33.35z" class="fil75"/><path id="_118_372" d="m183.2 11.52.33-.35 61.52 57.55-.33.35z" style="fill:#dbc99a"/><path id="_119_373" d="m183.42 11.29.32-.35 61.52 57.54-.32.35z" class="fil76"/><path id="_120_374" d="m183.64 11.05.32-.35 61.52 57.55-.32.35z" style="fill:#ddcb9b"/><path id="_121_375" d="m183.85 10.82.33-.35 61.52 57.55-.33.35z" class="fil78"/><path id="_122_376" d="m184.07 10.59.33-.36 61.52 57.55-.33.35z" style="fill:#ddcc9c"/><path id="_123_377" d="m184.29 10.35.33-.35 61.52 57.55-.33.35z" style="fill:#decc9c"/><path id="_124_378" d="m184.51 10.12.33-.35 61.52 57.54-.33.35z" class="fil80"/><path id="_125_379" d="m184.73 9.88.33-.35 61.52 57.55-.33.35z" style="fill:#decd9d"/><path id="_126_380" d="m184.95 9.65.32-.35 61.52 57.55-.32.35z" class="fil82"/><path id="_127_381" d="m185.17 9.42.32-.35 61.52 57.54-.32.35z" style="fill:#dfce9e"/><path id="_128_382" d="m185.38 9.18.33-.35 61.52 57.55-.33.35z" style="fill:#e0cf9e"/><path id="_129_383" d="m185.6 8.95.33-.35 61.52 57.55-.33.35z" class="fil85"/><path id="_130_384" d="m185.82 8.72.33-.35 61.52 57.54-.33.35z" style="fill:#e1d09f"/><path id="_131_385" d="m186.04 8.48.33-.35 61.52 57.55-.33.35z" class="fil86"/><path id="_132_386" d="m186.26 8.25.33-.35 61.52 57.55-.33.35z" style="fill:#e2d1a0"/><path id="_133_387" d="m186.48 8.01.32-.35 61.52 57.55-.32.35z" class="fil87"/><path id="_134_388" d="m186.7 7.78.32-.35 61.52 57.55-.32.35z" class="fil87"/><path id="_135_389" d="m186.91 7.55.33-.35 61.52 57.54-.33.35z" class="fil89"/><path id="_136_390" d="m187.13 7.31.33-.35 61.52 57.55-.33.35z" class="fil89"/><path id="_137_391" d="m187.35 7.08.33-.35 61.52 57.55-.33.35z" class="fil91"/><path id="_138_392" d="m187.57 6.85.33-.35 61.52 57.54-.33.35z" class="fil91"/><path id="_139_393" d="m187.79 6.61.33-.35 61.52 57.55-.33.35z" class="fil92"/><path id="_140_394" d="m188.01 6.38.32-.35 61.52 57.55-.32.35z" style="fill:#e6d6a5"/><path id="_141_395" d="m188.23 6.15.32-.36 61.52 57.55-.32.35z" class="fil94"/><path id="_142_396" d="m188.44 5.91.33-.35 61.52 57.55-.33.35z" class="fil94"/><path id="_143_397" d="m188.66 5.68.33-.35 61.52 57.54-.33.36z" class="fil95"/><path id="_144_398" d="m188.88 5.44.33-.35 61.52 57.55-.33.35z" class="fil95"/><path id="_145_399" d="m189.1 5.21.33-.35 61.52 57.55-.33.35z" class="fil95"/><path id="_146_400" d="m189.32 4.98.33-.35 61.52 57.54-.33.35z" class="fil97"/><path id="_147_401" d="m189.54 4.74.32-.35 61.52 57.55-.32.35z" class="fil97"/><path id="_148_402" d="m189.76 4.51.32-.35 61.52 57.55-.32.35z" class="fil98"/><path id="_149_403" d="m189.97 4.28.33-.35 61.52 57.54-.33.35z" class="fil99"/><path id="_150_404" d="m190.19 4.04.33-.35 61.52 57.55-.33.35z" class="fil100"/><path id="_151_405" d="m190.41 3.81.33-.35 61.52 57.55-.33.35z" class="fil100"/><path id="_152_406" d="m190.63 3.58.33-.36 61.52 57.55-.33.35z" style="fill:#eadba9"/><path id="_153_407" d="m190.85 3.34.33-.35 61.52 57.55-.33.35z" class="fil101"/><path id="_154_408" d="m191.07 3.11.32-.35 61.52 57.54-.32.36z" class="fil101"/><path id="_155_409" d="m191.29 2.87.32-.35 61.52 57.55-.32.35z" class="fil102"/><path id="_156_410" d="m191.5 2.64.33-.35 61.52 57.55-.33.35z" class="fil103"/><path id="_157_411" d="m191.72 2.41.33-.35 61.52 57.54-.33.35z" class="fil103"/><path id="_158_412" d="m191.94 2.17.33-.35 61.52 57.55-.33.35z" class="fil104"/><path id="_159_413" d="m192.16 1.94.33-.35 61.52 57.55-.33.35z" class="fil104"/><path id="_160_414" d="m192.38 1.71.33-.35 61.52 57.54-.33.35z" style="fill:#ecdead"/><path id="_161_415" d="m192.6 1.47.32-.35 61.52 57.55-.32.35z" class="fil106"/><path id="_162_416" d="m192.82 1.24.32-.35 61.52 57.55-.32.35z" class="fil106"/><path id="_163_417" d="m193.03 1 .33-.35 61.52 57.55-.33.35z" class="fil107"/><path id="_164_418" d="m193.25.77.33-.35 61.52 57.55-.33.35z" style="fill:#ede0ae"/><path id="_165_419" d="m193.47.54.33-.35 61.52 57.54-.33.35z" class="fil108"/><path id="_166_420" d="m193.69.3.33-.35 61.52 57.55-.33.35z" class="fil109"/><path id="_167_421" d="m193.91.07.33-.35 61.52 57.55-.33.35z" class="fil109"/><path id="_168_422" d="m194.13-.16.32-.35 61.52 57.54-.32.35z" class="fil110"/><path id="_169_423" d="m194.35-.4.32-.35 61.52 57.55-.32.35z" class="fil111"/><path id="_170_424" d="m194.56-.63.33-.35 61.52 57.55-.33.35z" class="fil112"/><path id="_171_425" d="m194.78-.86.33-.35 61.52 57.54-.33.35z" class="fil112"/><path id="_172_426" d="m195-1.1.33-.35 61.52 57.55-.33.35z" class="fil114"/><path id="_173_427" d="m195.22-1.33.33-.35 61.52 57.54-.33.36z" class="fil114"/><path id="_174_428" d="m195.44-1.57.33-.35 61.52 57.55-.33.35z" class="fil114"/><path id="_175_429" d="m195.66-1.8.32-.35L257.5 55.4l-.32.35z" style="fill:#efe3b2"/><path id="_176_430" d="m195.88-2.03.32-.35 61.52 57.54-.32.35z" style="fill:#f0e3b3"/><path id="_177_431" d="m196.09-2.27.33-.35 61.52 57.55-.33.35z" style="fill:#f0e4b3"/><path id="_178_432" d="m196.31-2.5.33-.35 61.52 57.55-.33.35z" class="fil115"/><path id="_179_433" d="m196.53-2.73.33-.35 61.52 57.54-.33.35z" class="fil115"/><path id="_180_434" d="m196.75-2.97.33-.35 61.52 57.55-.33.35z" style="fill:#f1e5b5"/><path id="_181_435" d="m196.97-3.2.33-.35L258.82 54l-.33.35z" class="fil254"/><path id="_182_436" d="m197.19-3.43.32-.35 61.52 57.54-.32.35z" class="fil254"/><path id="_183_437" d="m197.41-3.67.32-.35 61.52 57.55-.32.35z" class="fil255"/><path id="_184_438" d="m197.62-3.9.33-.35 61.52 57.54-.33.36z" class="fil255"/><path id="_185_439" d="m197.84-4.14.33-.35 61.52 57.55-.33.35z" style="fill:#f2e6b7"/><path id="_186_440" d="m198.06-4.37.33-.35 61.52 57.55-.33.35z" style="fill:#f3e7b8"/><path id="_187_441" d="m198.28-4.6.33-.35 61.52 57.54-.33.35z" style="fill:#f3e7b8"/><path id="_188_442" d="m198.5-4.84.33-.35 61.52 57.55-.33.35z" class="fil117"/><path id="_189_443" d="m198.72-5.07.32-.35 61.52 57.55-.32.35z" style="fill:#f3e8b9"/><path id="_190_444" d="m198.94-5.3.32-.35 61.52 57.54-.32.35z" style="fill:#f3e8ba"/><path id="_191_445" d="m199.15-5.54.33-.35L261 51.66l-.33.35z" style="fill:#f4e8ba"/><path id="_192_446" d="m199.37-5.77.33-.35 61.52 57.55-.33.35z" style="fill:#f4e8bb"/><path id="_193_447" d="m199.59-6.01.33-.35 61.52 57.55-.33.35z" class="fil118"/><path id="_194_448" d="m199.81-6.24.33-.35 61.52 57.55-.33.35z" class="fil263"/><path id="_195_449" d="m200.03-6.47.33-.35 61.52 57.54-.33.35z" class="fil263"/><path id="_196_450" d="m200.25-6.71.32-.35 61.52 57.55-.32.35z" style="fill:#f4e9bc"/><path id="_197_451" d="m200.47-6.94.32-.35 61.52 57.55-.32.35z" style="fill:#f4eabd"/><path id="_198_452" d="m200.68-7.17.33-.35 61.52 57.54-.33.35z" class="fil119"/><path id="_199_453" d="m200.9-7.41.33-.35 61.52 57.55-.33.35z" class="fil266"/><path id="_200_454" d="m201.12-7.64.33-.35 61.52 57.55-.33.35z" class="fil266"/><path id="_201_455" d="m201.34-7.87.33-.35 61.52 57.54-.33.35z" class="fil120"/><path id="_202_456" d="m201.56-8.11.33-.35 61.52 57.55-.33.35z" class="fil120"/><path id="_203_457" d="m201.78-8.34.32-.35 61.52 57.55-.32.35z" class="fil267"/><path id="_204_458" d="m202-8.58.32-.35 61.52 57.55-.32.35z" class="fil267"/><path id="_205_459" d="m202.21-8.81.33-.35 61.52 57.55-.33.35z" class="fil268"/><path id="_206_460" d="m202.43-9.04.33-.35 61.52 57.54-.33.35z" class="fil268"/><path id="_207_461" d="m202.65-9.28.33-.35 61.52 57.55-.33.35z" style="fill:#f7edc1"/><path id="_208_462" d="m202.87-9.51.33-.35 61.52 57.55-.33.35z" class="fil270"/><path id="_209_463" d="m203.09-9.74.33-.35 61.52 57.54-.33.35z" class="fil270"/><path id="_210_464" d="m203.31-9.98.32-.35 61.52 57.55-.32.35z" class="fil122"/><path id="_211_465" d="m203.53-10.21.32-.35 61.52 57.55-.32.35z" class="fil122"/><path id="_212_466" d="m203.74-10.44.33-.36 61.52 57.55-.33.35z" class="fil271"/><path id="_213_467" d="m203.96-10.68.33-.35 61.52 57.55-.33.35z" class="fil271"/><path id="_214_468" d="m204.18-10.91.33-.35 61.52 57.55-.33.35z" style="fill:#f7edc4"/><path id="_215_469" d="m204.4-11.15.33-.35 61.52 57.55-.33.35z" class="fil273"/><path id="_216_470" d="m204.62-11.38.33-.35 61.52 57.55-.33.35z" class="fil273"/><path id="_217_471" d="m204.84-11.61.32-.35 61.52 57.54-.32.35z" class="fil274"/><path id="_218_472" d="m205.06-11.85.32-.35 61.52 57.55-.32.35z" class="fil274"/><path id="_219_473" d="m205.27-12.08.33-.35 61.52 57.55-.33.35z" class="fil275"/><path id="_220_474" d="m205.49-12.31.33-.35 61.52 57.54-.33.35z" class="fil275"/><path id="_221_475" d="m205.71-12.55.33-.35 61.52 57.55-.33.35z" class="fil275"/><path id="_222_476" d="m205.93-12.78.33-.35 61.52 57.55-.33.35z" class="fil126"/><path id="_223_477" d="m206.15-13.01.33-.36L268 44.18l-.33.35z" class="fil126"/><path id="_224_478" d="m206.37-13.25.32-.35 61.52 57.55-.32.35z" class="fil126"/><path id="_225_479" d="m206.59-13.48.32-.35 61.52 57.54-.32.35z" class="fil127"/><path id="_226_480" d="m206.8-13.72.33-.35 61.52 57.55-.33.35z" class="fil127"/><path id="_227_481" d="m207.02-13.95.33-.35 61.52 57.55-.33.35z" style="fill:#f8efc7"/><path id="_228_482" d="m207.24-14.18.33-.35 61.52 57.54-.33.35z" class="fil277"/><path id="_229_483" d="m207.46-14.42.33-.35 61.52 57.55-.33.35z" class="fil277"/><path id="_230_484" d="m207.68-14.65.33-.35 61.52 57.55-.33.35z" class="fil277"/><path id="_231_485" d="m207.9-14.88.32-.35 61.52 57.54-.32.35z" class="fil278"/><path id="_232_486" d="m208.12-15.12.32-.35 61.52 57.55-.32.35z" class="fil278"/><path id="_233_487" d="m208.33-15.35.33-.35 61.52 57.55-.33.35z" class="fil278"/><path id="_234_488" d="m208.55-15.58.33-.36 61.52 57.55-.33.35z" class="fil278"/><path id="_235_489" d="m208.77-15.82.33-.35 61.52 57.55-.33.35z" class="fil279"/><path id="_236_490" d="m208.99-16.05.33-.35 61.52 57.54-.33.35z" class="fil279"/><path id="_237_491" d="m209.21-16.29.33-.35 61.52 57.55-.33.35z" class="fil279"/><path id="_238_492" d="m209.43-16.52.32-.35 61.52 57.55-.32.35z" class="fil279"/><path id="_239_493" d="m209.65-16.75.32-.35 61.52 57.54-.32.35z" class="fil279"/><path id="_240_494" d="m209.86-16.99.33-.35 61.52 57.55-.33.35z" class="fil280"/><path id="_241_495" d="m210.08-17.22.33-.35 61.52 57.55-.33.35z" class="fil280"/><path id="_242_496" d="m210.3-17.45.33-.35 61.52 57.54-.33.35z" class="fil280"/><path id="_243_497" d="m210.52-17.69.33-.35 61.52 57.55-.33.35z" class="fil280"/><path id="_244_498" d="m210.74-17.92.33-.35 61.52 57.54-.33.36z" class="fil280"/><path id="_245_499" d="m210.96-18.16.32-.35 61.52 57.55-.32.35z" class="fil280"/><path id="_246_500" d="m211.18-18.39.32-.35 61.52 57.55-.32.35z" class="fil280"/><path id="_247_501" d="m211.39-18.62.33-.35 61.52 57.54-.33.35z" class="fil281"/><path id="_248_502" d="m211.61-18.86.33-.35 61.52 57.55-.33.35z" class="fil281"/><path id="_249_503" d="m211.83-19.09.33-.35 61.52 57.55-.33.35z" class="fil281"/><path id="_250_504" d="m212.05-19.32.33-.35 61.52 57.54-.33.35z" class="fil281"/><path id="_251_505" d="m212.27-19.56.33-.35 61.52 57.55-.33.35z" class="fil281"/><path id="_252_506" d="m212.49-19.79.32-.35 61.52 57.55-.32.35z" class="fil281"/><path id="_253_507" d="m212.71-20.02.32-.36 61.52 57.55-.32.35z" class="fil281"/><path id="_254_508" d="m212.92-20.26.33-.35 61.52 57.55-.33.35z" class="fil281"/><path id="_255_509" d="m213.14-20.49 1.45-1.55 61.52 57.54-1.45 1.56z" class="fil281"/></g></g></g></svg>